<svg width="169" height="51" viewBox="0 0 169 51" fill="none" xmlns="http://www.w3.org/2000/svg">
<path d="M11.7759 18.8088H3.4375V26.8572H11.7759V18.8088Z" fill="#E6E6E6"/>
<path d="M11.774 26.8572H3.43555V34.9056H11.774V26.8572Z" fill="#E6E6E6"/>
<path d="M20.1158 26.8572H11.7773V34.9056H20.1158V26.8572Z" fill="#E6E6E6"/>
<path d="M11.774 34.9055H3.43555V42.9517H11.774V34.9055Z" fill="#F2F2F2"/>
<path d="M20.1158 42.9519H11.7773V51.0003H20.1158V42.9519Z" fill="#F2F2F2"/>
<path d="M11.7762 42.9519V51.0003C10.998 50.9716 8.57534 50.7886 6.42753 49.0753C3.51469 46.7512 3.43994 43.4679 3.43555 42.9519H11.774H11.7762Z" fill="#F2F2F2"/>
<path d="M36.7935 2.71436H28.4551V10.7627H36.7935V2.71436Z" fill="#CCCCCC"/>
<path d="M28.4537 2.71436H20.1152V10.7627H28.4537V2.71436Z" fill="#CCCCCC"/>
<path d="M28.4537 10.7622H20.1152V18.8084H28.4537V10.7622Z" fill="#CCCCCC"/>
<path d="M36.7935 42.9519H28.4551V51.0003H36.7935V42.9519Z" fill="#E6E6E6"/>
<path d="M28.4537 42.9519H20.1152V51.0003H28.4537V42.9519Z" fill="#E6E6E6"/>
<path d="M45.1294 2.71436H36.791V10.7627H45.1294V2.71436Z" fill="#B3B3B3"/>
<path d="M53.4693 10.7627H45.1309V2.71436C45.7948 2.74082 48.5845 2.91722 50.8884 5.01421C53.4209 7.32068 53.4715 10.2247 53.4693 10.7627Z" fill="#B3B3B3"/>
<path d="M53.4693 10.7622H45.1309V18.8084H53.4693V10.7622Z" fill="#B3B3B3"/>
<path d="M53.4693 18.8088H45.1309V26.8572H53.4693V18.8088Z" fill="#CCCCCC"/>
<path d="M53.4693 26.8572H45.1309V34.9056H53.4693V26.8572Z" fill="#CCCCCC"/>
<path d="M53.4693 34.9055H45.1309V42.9517H53.4693V34.9055Z" fill="white"/>
<path d="M45.1294 42.9519H36.791V51.0003H45.1294V42.9519Z" fill="white"/>
<path d="M53.4693 42.9519C53.4473 43.6774 53.2758 45.9838 51.3852 48.0632C49.0242 50.6629 45.7574 50.954 45.1309 51.0003V42.9519H53.4693Z" fill="white"/>
<path d="M20.1158 34.9055H11.7773V42.9517H20.1158V34.9055Z" fill="#F2F2F2"/>
<path d="M28.4537 34.9055H20.1152V42.9517H28.4537V34.9055Z" fill="#E6E6E6"/>
<path d="M36.7935 34.9055H28.4551V42.9517H36.7935V34.9055Z" fill="#E6E6E6"/>
<path d="M45.1294 34.9055H36.791V42.9517H45.1294V34.9055Z" fill="white"/>
<path d="M28.4537 26.8572H20.1152V34.9056H28.4537V26.8572Z" fill="#F2F2F2"/>
<path d="M45.1294 10.7622H36.791V18.8084H45.1294V10.7622Z" fill="#B3B3B3"/>
<path d="M45.1294 18.8088H36.791V26.8572H45.1294V18.8088Z" fill="#CCCCCC"/>
<path d="M45.1294 26.8572H36.791V34.9056H45.1294V26.8572Z" fill="#CCCCCC"/>
<path d="M36.7935 10.7622H28.4551V18.8084H36.7935V10.7622Z" fill="#CCCCCC"/>
<path d="M36.7935 18.8088H28.4551V26.8572H36.7935V18.8088Z" fill="#F2F2F2"/>
<path d="M36.7935 26.8572H28.4551V34.9056H36.7935V26.8572Z" fill="#F2F2F2"/>
<path d="M28.4537 18.8088H20.1152V26.8572H28.4537V18.8088Z" fill="#F2F2F2"/>
<path d="M20.1158 18.8088H11.7773V26.8572H20.1158V18.8088Z" fill="#E6E6E6"/>
<path d="M9.04351 0V8.04839H0.705078C0.731459 7.41995 0.916122 4.72319 3.29696 2.48508C5.57448 0.341781 8.33344 0.0551259 9.04351 0Z" fill="white"/>
<path d="M9.04351 8.04834H0.705078V16.0967H9.04351V8.04834Z" fill="white"/>
<path d="M17.3834 0H9.04492V8.04839H17.3834V0Z" fill="white"/>
<path d="M17.3834 8.04834H9.04492V16.0967H17.3834V8.04834Z" fill="white"/>
<path d="M101.307 25.2576C101.307 30.5342 99.5463 34.5783 96.0245 37.3831C92.5027 40.1901 87.4157 41.5925 80.7656 41.5925H70.1211V9.53564H81.922C88.0576 9.53564 92.8237 10.9182 96.218 13.6811C99.6123 16.444 101.309 20.3028 101.309 25.2598L101.307 25.2576ZM93.0282 25.434C93.0282 18.5476 89.4624 15.1056 82.3331 15.1056H78.0902V35.9829H81.5087C89.1876 35.9829 93.026 32.4658 93.026 25.434H93.0282Z" fill="white"/>
<path d="M132.109 41.5947L129.383 33.963H115.678L112.952 41.5947H104.365L117.632 9.40332H127.376L140.693 41.5947H132.107H132.109ZM127.479 28.263C124.96 21.348 123.542 17.4385 123.223 16.53C122.906 15.6237 122.678 14.9071 122.541 14.3801C121.976 16.2522 120.356 20.8783 117.683 28.2608H127.479V28.263Z" fill="white"/>
<path d="M145.426 41.5947V9.53564H153.397V35.9829H168.643V41.5969H145.426V41.5947Z" fill="white"/>
</svg>
