<svg width="170" height="52" viewBox="0 0 170 52" fill="none" xmlns="http://www.w3.org/2000/svg">
<path d="M7.91232 0V8.2055H0C0.0241019 7.56407 0.199702 4.81412 2.4584 2.53159C4.62069 0.348009 7.23747 0.0545896 7.91232 0Z" fill="#657176"/>
<path d="M7.91232 8.20557H0V16.4111H7.91232V8.20557Z" fill="#657176"/>
<path d="M15.8244 0H7.91211V8.2055H15.8244V0Z" fill="#657176"/>
<path d="M15.8244 8.20557H7.91211V16.4111H15.8244V8.20557Z" fill="#657176"/>
<path d="M10.5022 19.178H2.58984V27.3835H10.5022V19.178Z" fill="#939596"/>
<path d="M10.5022 27.3835H2.58984V35.589H10.5022V27.3835Z" fill="#939596"/>
<path d="M18.4143 27.3835H10.502V35.589H18.4143V27.3835Z" fill="#939596"/>
<path d="M10.5022 35.5891H2.58984V43.7946H10.5022V35.5891Z" fill="#A7A7A8"/>
<path d="M18.4143 43.7947H10.502V52.0002H18.4143V43.7947Z" fill="#A7A7A8"/>
<path d="M10.5022 43.7947V52.0002C9.76189 51.9695 7.46532 51.7852 5.42699 50.0384C2.66215 47.6705 2.59329 44.3201 2.58984 43.7947H10.5022Z" fill="#A7A7A8"/>
<path d="M26.3264 2.76709H18.4141V10.9726H26.3264V2.76709Z" fill="#495358"/>
<path d="M34.2385 2.76709H26.3262V10.9726H34.2385V2.76709Z" fill="#495358"/>
<path d="M26.3264 10.9727H18.4141V19.1782H26.3264V10.9727Z" fill="#495358"/>
<path d="M34.2385 43.7947H26.3262V52.0002H34.2385V43.7947Z" fill="#939596"/>
<path d="M26.3264 43.7947H18.4141V52.0002H26.3264V43.7947Z" fill="#939596"/>
<path d="M42.1526 2.76709H34.2402V10.9726H42.1526V2.76709Z" fill="#2A2F32"/>
<path d="M50.0647 10.9726H42.1523V2.76709C42.7824 2.79438 45.4302 2.9718 47.6166 5.11103C50.0199 7.46179 50.0681 10.4233 50.0647 10.9726Z" fill="#2A2F32"/>
<path d="M50.0647 10.9727H42.1523V19.1782H50.0647V10.9727Z" fill="#2A2F32"/>
<path d="M50.0647 19.178H42.1523V27.3835H50.0647V19.178Z" fill="#495358"/>
<path d="M50.0647 27.3835H42.1523V35.589H50.0647V27.3835Z" fill="#495358"/>
<path d="M50.0647 35.5891H42.1523V43.7946H50.0647V35.5891Z" fill="#657176"/>
<path d="M42.1526 43.7947H34.2402V52.0002H42.1526V43.7947Z" fill="#657176"/>
<path d="M50.0647 43.7947C50.044 44.535 49.8822 46.8858 48.0883 49.0046C45.8468 51.6556 42.748 51.9524 42.1523 51.9968V43.7913H50.0647V43.7947Z" fill="#657176"/>
<path d="M18.4143 35.5891H10.502V43.7946H18.4143V35.5891Z" fill="#A7A7A8"/>
<path d="M26.3264 35.5891H18.4141V43.7946H26.3264V35.5891Z" fill="#939596"/>
<path d="M34.2385 35.5891H26.3262V43.7946H34.2385V35.5891Z" fill="#939596"/>
<path d="M42.1526 35.5891H34.2402V43.7946H42.1526V35.5891Z" fill="#657176"/>
<path d="M26.3264 27.3835H18.4141V35.589H26.3264V27.3835Z" fill="#A7A7A8"/>
<path d="M42.1526 10.9727H34.2402V19.1782H42.1526V10.9727Z" fill="#2A2F32"/>
<path d="M42.1526 19.178H34.2402V27.3835H42.1526V19.178Z" fill="#495358"/>
<path d="M42.1526 27.3835H34.2402V35.589H42.1526V27.3835Z" fill="#495358"/>
<path d="M34.2385 10.9727H26.3262V19.1782H34.2385V10.9727Z" fill="#495358"/>
<path d="M34.2385 19.178H26.3262V27.3835H34.2385V19.178Z" fill="#A7A7A8"/>
<path d="M34.2385 27.3835H26.3262V35.589H34.2385V27.3835Z" fill="#A7A7A8"/>
<path d="M26.3264 19.178H18.4141V27.3835H26.3264V19.178Z" fill="#A7A7A8"/>
<path d="M18.4143 19.178H10.502V27.3835H18.4143V19.178Z" fill="#939596"/>
<path d="M97.7295 27.6599C97.7295 32.8732 95.8875 36.8651 92.2067 39.6355C88.5226 42.4059 83.2064 43.7945 76.2513 43.7945H65.123V12.1292H77.4632C83.8778 12.1292 88.86 13.4939 92.4099 16.2234C95.9598 18.9528 97.733 22.7639 97.733 27.6599H97.7295ZM89.0735 27.8305C89.0735 21.0307 85.3446 17.6291 77.8902 17.6291H73.4554V38.2469H77.0294C85.0588 38.2469 89.0735 34.7736 89.0735 27.8305Z" fill="#2A2F32"/>
<path d="M129.932 43.7945L127.081 36.2578H112.754L109.904 43.7945H100.924L114.796 12.0029H124.984L138.908 43.7945H129.929H129.932ZM125.095 30.6248C122.461 23.7943 120.977 19.9321 120.646 19.0382C120.316 18.1443 120.078 17.4346 119.933 16.916C119.341 18.7652 117.647 23.3337 114.851 30.6248H125.095Z" fill="#2A2F32"/>
<path d="M143.861 43.7945V12.1292H152.194V38.2469H168.135V43.7911H143.861V43.7945Z" fill="#2A2F32"/>
</svg>
