<svg width="23" height="23" viewBox="0 0 23 23" fill="none" xmlns="http://www.w3.org/2000/svg">
<path d="M11.75 0C14.7337 0 17.5952 1.18526 19.705 3.29505C21.8147 5.40483 23 8.26631 23 11.25C23 14.2337 21.8147 17.0952 19.705 19.205C17.5952 21.3147 14.7337 22.5 11.75 22.5C8.76631 22.5 5.90483 21.3147 3.79505 19.205C1.68526 17.0952 0.5 14.2337 0.5 11.25C0.5 8.26631 1.68526 5.40483 3.79505 3.29505C5.90483 1.18526 8.76631 0 11.75 0V0ZM2.375 8.1C2.54435 8.65433 2.82594 9.16789 3.20227 9.60873C3.5786 10.0496 4.04161 10.4083 4.5625 10.6625C4.84001 9.62063 5.3528 8.65629 6.06142 7.84366C6.77003 7.03102 7.6556 6.39175 8.65 5.975C8.48816 5.42037 8.13922 4.93891 7.6625 4.6125C8.2 4.2625 8.9125 4.0875 9.3375 4.7C10 5.5625 9.3375 6.7125 9.075 7.2V7.375C9.76904 6.95403 10.3117 6.32383 10.625 5.575C11.8328 5.53621 13.0275 5.83489 14.075 6.4375C14.1837 5.73175 14.115 5.01004 13.875 4.3375C13.4236 4.38059 12.9686 4.3119 12.55 4.1375C12.1314 3.9631 11.7622 3.68835 11.475 3.3375C10.9 2.6875 11.6375 1.8625 12.2125 1.3625H11.7625C10.0608 1.35102 8.38523 1.78175 6.9 2.6125C6.06052 3.23294 5.37014 4.03297 4.87924 4.95421C4.38834 5.87546 4.10931 6.89468 4.0625 7.9375C3.7625 7.9375 3.1875 7.25 2.925 6.7875C2.71 7.21125 2.52625 7.65 2.375 8.1ZM11.75 21.05C14.3125 18.45 11.4375 16.3625 13 14.5C14.15 13.4375 15.8625 14.175 16.8875 12.9625C17.0605 12.0586 16.9857 11.1247 16.671 10.2598C16.3563 9.39495 15.8135 8.63136 15.1 8.05C14.45 7.5 10.1 6.8 8.325 8.325C7.28682 9.21917 6.55647 10.4175 6.2375 11.75C5.66387 11.7933 5.09014 11.6673 4.5875 11.3875C4.075 15.1125 8.525 19.8125 11.75 21.05ZM16.5625 2.6125C16.0848 2.43036 15.56 2.41259 15.071 2.56199C14.5821 2.71139 14.1568 3.01945 13.8625 3.4375C14.3875 3.9125 15.0375 4.225 15.7375 4.3375C15.7117 3.96943 15.6316 3.6072 15.5 3.2625L16.5625 2.6125Z" fill="white"/>
</svg>
