<svg width="53" height="53" viewBox="0 0 53 53" fill="none" xmlns="http://www.w3.org/2000/svg">
<rect x="0.5" y="0.5" width="52" height="52" rx="26" fill="#2A2F32"/>
<g clip-path="url(#clip0_2027_15908)">
<path d="M38.5 26.5C38.5 19.8726 33.1274 14.5 26.5 14.5C19.8726 14.5 14.5 19.8726 14.5 26.5C14.5 32.4895 18.8882 37.454 24.625 38.3542V29.9687H21.5781V26.5H24.625V23.8562C24.625 20.8488 26.4166 19.1875 29.1576 19.1875C30.4701 19.1875 31.8438 19.4219 31.8438 19.4219V22.375H30.3306C28.84 22.375 28.375 23.3001 28.375 24.25V26.5H31.7031L31.1711 29.9687H28.375V38.3542C34.1118 37.454 38.5 32.4895 38.5 26.5Z" fill="white"/>
</g>
<defs>
<clipPath id="clip0_2027_15908">
<rect width="24" height="24" fill="white" transform="translate(14.5 14.5)"/>
</clipPath>
</defs>
</svg>
