<svg width="53" height="53" viewBox="0 0 53 53" fill="none" xmlns="http://www.w3.org/2000/svg">
<rect x="0.5" y="0.5" width="52" height="52" rx="26" fill="#2A2F32"/>
<g clip-path="url(#clip0_2027_15914)">
<path d="M36.7234 14.5H16.2719C15.2922 14.5 14.5 15.2734 14.5 16.2297V36.7656C14.5 37.7219 15.2922 38.5 16.2719 38.5H36.7234C37.7031 38.5 38.5 37.7219 38.5 36.7703V16.2297C38.5 15.2734 37.7031 14.5 36.7234 14.5ZM21.6203 34.9516H18.0578V23.4953H21.6203V34.9516ZM19.8391 21.9344C18.6953 21.9344 17.7719 21.0109 17.7719 19.8719C17.7719 18.7328 18.6953 17.8094 19.8391 17.8094C20.9781 17.8094 21.9016 18.7328 21.9016 19.8719C21.9016 21.0062 20.9781 21.9344 19.8391 21.9344ZM34.9516 34.9516H31.3937V29.3828C31.3937 28.0562 31.3703 26.3453 29.5422 26.3453C27.6906 26.3453 27.4094 27.7937 27.4094 29.2891V34.9516H23.8563V23.4953H27.2687V25.0609H27.3156C27.7891 24.1609 28.9516 23.2094 30.6813 23.2094C34.2859 23.2094 34.9516 25.5813 34.9516 28.6656V34.9516Z" fill="white"/>
</g>
<defs>
<clipPath id="clip0_2027_15914">
<rect width="24" height="24" fill="white" transform="translate(14.5 14.5)"/>
</clipPath>
</defs>
</svg>
