<svg width="53" height="53" viewBox="0 0 53 53" fill="none" xmlns="http://www.w3.org/2000/svg">
<rect x="0.5" y="0.5" width="52" height="52" rx="26" fill="#2A2F32"/>
<g clip-path="url(#clip0_2027_15911)">
<path d="M22.0502 36.2497C31.1045 36.2497 36.0583 28.7465 36.0583 22.2416C36.0583 22.0307 36.0536 21.8151 36.0442 21.6041C37.0079 20.9072 37.8395 20.044 38.5 19.0551C37.6025 19.4544 36.6496 19.7151 35.6739 19.8285C36.7013 19.2127 37.4705 18.2452 37.8391 17.1055C36.8726 17.6783 35.8156 18.0824 34.7134 18.3004C33.9708 17.5113 32.989 16.9889 31.9197 16.8138C30.8504 16.6387 29.7532 16.8208 28.7977 17.3319C27.8423 17.8429 27.0818 18.6545 26.6338 19.6411C26.1859 20.6277 26.0754 21.7344 26.3195 22.7901C24.3625 22.6918 22.4479 22.1835 20.7 21.2979C18.952 20.4122 17.4097 19.1692 16.173 17.6493C15.5444 18.733 15.3521 20.0154 15.635 21.2358C15.918 22.4563 16.6551 23.5232 17.6964 24.2197C16.9146 24.1949 16.15 23.9844 15.4656 23.6057V23.6666C15.4649 24.8039 15.8581 25.9063 16.5783 26.7865C17.2985 27.6667 18.3013 28.2703 19.4162 28.4947C18.6921 28.6929 17.932 28.7218 17.1948 28.5791C17.5095 29.5572 18.1216 30.4126 18.9458 31.0261C19.77 31.6395 20.7651 31.9804 21.7923 32.001C20.0484 33.3709 17.8942 34.1139 15.6766 34.1104C15.2833 34.1098 14.8904 34.0857 14.5 34.0382C16.7529 35.4835 19.3735 36.2511 22.0502 36.2497Z" fill="white"/>
</g>
<defs>
<clipPath id="clip0_2027_15911">
<rect width="24" height="24" fill="white" transform="translate(14.5 14.5)"/>
</clipPath>
</defs>
</svg>
