<svg width="51" height="50" viewBox="0 0 51 50" fill="none" xmlns="http://www.w3.org/2000/svg">
<path d="M25.6395 41.2214C25.4386 41.2214 25.2377 41.1753 25.0565 41.0815L19.215 38.0576C17.5574 37.1987 16.2607 36.2347 15.2482 35.1117C13.0322 32.6558 11.7992 29.5031 11.7796 26.2327L11.711 15.4687C11.7028 14.2264 12.5047 13.1114 13.7033 12.6914L24.4294 8.95179C25.0663 8.72433 25.7767 8.72114 26.425 8.94066L37.1918 12.553C38.397 12.9555 39.2119 14.0626 39.2184 15.3033L39.287 26.0752C39.3083 29.3408 38.1178 32.5062 35.936 34.9893C34.9349 36.1282 33.6497 37.1064 32.0084 37.9813L26.2192 41.0735C26.0396 41.1705 25.8403 41.2198 25.6395 41.2214Z" fill="#FF725E"/>
</svg>
