<svg width="50" height="50" viewBox="0 0 50 50" fill="none" xmlns="http://www.w3.org/2000/svg">
<path d="M34.5872 13.7192H12.2285C10.0194 13.7192 8.22852 15.5101 8.22852 17.7192V28.7903C8.22852 30.9995 10.0194 32.7903 12.2285 32.7903H34.5872C36.7964 32.7903 38.5872 30.9995 38.5872 28.7903V17.7192C38.5872 15.5101 36.7964 13.7192 34.5872 13.7192Z" fill="#FF725E"/>
<path d="M37.7715 17.2095H14.623C12.4139 17.2095 10.623 19.0003 10.623 21.2095V32.2806C10.623 34.4897 12.4139 36.2806 14.623 36.2806H37.7715C39.9807 36.2806 41.7715 34.4897 41.7715 32.2806V21.2095C41.7715 19.0003 39.9807 17.2095 37.7715 17.2095Z" fill="#FF725E" fill-opacity="0.24"/>
</svg>
