<svg width="26" height="23" viewBox="0 0 26 23" fill="none" xmlns="http://www.w3.org/2000/svg">
<path d="M13 5.52704C11.4615 5.52704 10.2143 6.76431 10.2143 8.29056C10.2143 9.81681 11.4615 11.0541 13 11.0541C14.5385 11.0541 15.7857 9.81681 15.7857 8.29056C15.7857 6.76431 14.5385 5.52704 13 5.52704Z" fill="#33687E"/>
<path fill-rule="evenodd" clip-rule="evenodd" d="M0 2.30293C0 1.03106 1.03934 0 2.32143 0H23.6786C24.9607 0 26 1.03106 26 2.30293V14.2782C26 15.5501 24.9607 16.5811 23.6786 16.5811H2.32143C1.03934 16.5811 0 15.5501 0 14.2782V2.30293ZM8.35714 8.29056C8.35714 5.74681 10.4358 3.68469 13 3.68469C15.5642 3.68469 17.6429 5.74681 17.6429 8.29056C17.6429 10.8343 15.5642 12.8964 13 12.8964C10.4358 12.8964 8.35714 10.8343 8.35714 8.29056ZM21.3571 7.36939C20.8443 7.36939 20.4286 7.78181 20.4286 8.29056V8.29978C20.4286 8.80853 20.8443 9.22095 21.3571 9.22095H21.3664C21.8793 9.22095 22.295 8.80853 22.295 8.29978V8.29056C22.295 7.78181 21.8793 7.36939 21.3664 7.36939H21.3571ZM3.71429 8.29056C3.71429 7.78181 4.13002 7.36939 4.64286 7.36939H4.65214C5.16498 7.36939 5.58071 7.78181 5.58071 8.29056V8.29978C5.58071 8.80853 5.16498 9.22095 4.65214 9.22095H4.64286C4.13002 9.22095 3.71429 8.80853 3.71429 8.29978V8.29056Z" fill="#33687E"/>
<path d="M0.928571 18.4235C0.415736 18.4235 0 18.8359 0 19.3446C0 19.8534 0.415736 20.2658 0.928571 20.2658C7.61434 20.2658 14.0898 21.1529 20.2426 22.8143C21.7166 23.2123 23.2143 22.1288 23.2143 20.5792V19.3446C23.2143 18.8359 22.7985 18.4235 22.2857 18.4235H0.928571Z" fill="#33687E"/>
</svg>
