<svg width="26" height="24" viewBox="0 0 26 24" fill="none" xmlns="http://www.w3.org/2000/svg">
<path d="M20.4438 12.9054L15.6 16.7435H9.1V15.4556H14.3845C14.9032 15.4556 15.2139 14.8824 14.9253 14.4548L13.7709 12.7392C13.2899 12.0218 12.4787 11.5917 11.609 11.5917H9.1H1.3C0.5811 11.5917 0 12.1674 0 12.8796V20.6074C0 22.0293 1.1648 23.1833 2.6 23.1833H15.1307C16.2552 23.1833 17.3251 22.7029 18.0661 21.8645L26 12.8796L24.1124 12.2563C22.8579 11.8415 21.4773 12.0862 20.4438 12.9054ZM17.4239 11.5917C19.578 11.5917 21.3239 9.86193 21.3239 7.72778C21.3239 4.23997 17.4239 0 17.4239 0C17.4239 0 13.5239 4.21293 13.5239 7.72778C13.5239 9.86193 15.2711 11.5917 17.4239 11.5917Z" fill="#33687E"/>
</svg>
