<svg width="24" height="24" viewBox="0 0 24 24" fill="none" xmlns="http://www.w3.org/2000/svg">
<path d="M14.3994 2.4C14.3994 3.72548 13.3248 4.8 11.9994 4.8C10.6739 4.8 9.59936 3.72548 9.59936 2.4C9.59936 1.07452 10.6739 0 11.9994 0C13.3248 0 14.3994 1.07452 14.3994 2.4Z" fill="#33687E"/>
<path d="M14.3992 19.2H9.59922V13.2H7.19922V8.39998C7.19922 7.07638 8.27562 5.99998 9.59922 5.99998H14.3992C15.7228 5.99998 16.7992 7.07638 16.7992 8.39998V13.2H14.3992V19.2Z" fill="#33687E"/>
<path d="M19.7352 11.2632L18.6636 13.41C20.5296 14.34 21.6 15.576 21.6 16.8C21.6 19.0704 17.658 21.6 12 21.6C6.342 21.6 2.4 19.0704 2.4 16.8C2.4 15.576 3.4704 14.34 5.3352 13.41L4.2636 11.2632C1.554 12.6144 0 14.6316 0 16.8C0 20.8368 5.2716 24 12 24C18.7284 24 24 20.8368 24 16.8C24 14.6316 22.446 12.6144 19.7352 11.2632Z" fill="#33687E"/>
</svg>
