<svg width="482" height="479" viewBox="0 0 482 479" fill="none" xmlns="http://www.w3.org/2000/svg">
<g clip-path="url(#clip0_4008_24401)">
<path d="M313.301 379.916C313.378 384.495 314.069 389.041 315.265 393.489L324.939 431.041L317.733 478.42H388.733L383.688 452.129L400.327 450.321C400.327 450.321 408.993 450.277 409.662 443.42C410.32 436.562 410.923 420.963 410.923 420.963L420.96 421.522C422.649 421.62 424.086 420.393 424.173 418.794C424.195 418.345 424.108 417.906 423.932 417.501C422.265 413.722 414.06 389.863 414.06 389.863C414.06 389.863 419.545 351.587 385.969 337.511C373.575 332.318 358.043 331.694 345.319 335.988C331.992 340.49 312.862 353.165 313.29 379.938L313.301 379.916Z" fill="#154A60" fill-opacity="0.5"/>
<path d="M421.309 188.517C423.558 187.159 425.96 186.129 428.428 185.428L429.898 178.384L441.81 178.176L443.521 185.165C446.022 185.778 448.446 186.72 450.75 188.002L456.771 184.058L465.338 192.329L461.609 198.475C462.969 200.72 464 203.119 464.702 205.595L471.755 207.063L471.963 218.96L464.965 220.669C464.351 223.166 463.408 225.587 462.124 227.888L466.073 233.902L457.803 242.457L451.649 238.733C449.4 240.091 446.998 241.121 444.519 241.822L443.05 248.866L431.137 249.074L429.426 242.085C426.925 241.471 424.501 240.529 422.198 239.248L416.176 243.191L407.609 234.931L411.339 228.786C409.979 226.54 408.948 224.141 408.246 221.665L401.193 220.198L400.984 208.301L407.982 206.592C408.597 204.094 409.54 201.673 410.823 199.373L406.875 193.359L415.145 184.803L421.298 188.528L421.309 188.517ZM427.66 204.368C422.757 209.44 422.9 217.525 427.978 222.421C433.057 227.318 441.152 227.176 446.055 222.104C450.958 217.032 450.815 208.947 445.737 204.051C440.658 199.154 432.563 199.296 427.66 204.368Z" fill="#3D7288"/>
<path d="M420.848 302.795C422.417 301.853 424.073 301.141 425.795 300.648L426.815 295.763L435.086 295.62L436.271 300.473C438.004 300.9 439.693 301.558 441.283 302.445L445.462 299.706L451.407 305.446L448.819 309.708C449.762 311.274 450.475 312.928 450.969 314.648L455.861 315.667L456.003 323.927L451.144 325.121C450.716 326.852 450.058 328.539 449.17 330.127L451.912 334.301L446.164 340.238L441.887 337.653C440.318 338.595 438.662 339.307 436.94 339.8L435.92 344.686L427.649 344.828L426.454 339.975C424.72 339.548 423.031 338.891 421.441 338.003L417.262 340.742L411.317 335.002L413.905 330.73C412.962 329.163 412.238 327.509 411.755 325.789L406.863 324.77L406.721 316.511L411.58 315.316C412.008 313.586 412.666 311.899 413.554 310.31L410.812 306.137L416.56 300.199L420.838 302.784L420.848 302.795ZM425.258 313.794C421.858 317.31 421.956 322.919 425.477 326.326C428.998 329.722 434.614 329.623 438.026 326.107C441.426 322.59 441.327 316.982 437.806 313.575C434.285 310.179 428.669 310.277 425.258 313.794Z" fill="#5B90A6"/>
<path d="M211.522 385.864C213.091 384.922 214.747 384.21 216.469 383.717L217.489 378.831L225.76 378.688L226.944 383.541C228.677 383.969 230.367 384.626 231.957 385.513L236.136 382.775L242.081 388.515L239.493 392.776C240.436 394.343 241.149 395.997 241.642 397.717L246.535 398.735L246.677 406.995L241.818 408.189C241.39 409.92 240.732 411.607 239.844 413.195L242.586 417.369L236.838 423.306L232.56 420.721C230.992 421.663 229.336 422.375 227.613 422.868L226.593 427.754L218.323 427.896L217.127 423.044C215.394 422.616 213.705 421.959 212.115 421.072L207.936 423.81L201.99 418.07L204.579 413.798C203.636 412.231 202.923 410.577 202.429 408.857L197.537 407.839L197.395 399.579L202.254 398.385C202.681 396.654 203.34 394.967 204.228 393.379L201.486 389.205L207.233 383.267L211.511 385.853L211.522 385.864ZM215.932 396.862C212.531 400.379 212.63 405.987 216.151 409.394C219.672 412.79 225.288 412.691 228.699 409.175C232.1 405.659 232.001 400.05 228.48 396.643C224.959 393.247 219.343 393.346 215.932 396.862Z" fill="#477C92"/>
<path d="M38.5879 178.626C40.7488 177.322 43.0522 176.336 45.4215 175.657L46.8255 168.909L58.2439 168.712L59.8893 175.405C62.2804 175.997 64.6168 176.906 66.8215 178.133L72.5911 174.354L80.8067 182.285L77.2309 188.178C78.5361 190.336 79.5233 192.637 80.2034 195.003L86.9601 196.405L87.1576 207.809L80.4557 209.452C79.8634 211.84 78.9529 214.173 77.7244 216.375L81.5087 222.137L73.5783 230.342L67.6771 226.771C65.5162 228.075 63.2128 229.061 60.8435 229.74L59.4395 236.488L48.0211 236.685L46.3757 229.981C43.9846 229.389 41.6482 228.48 39.4435 227.253L33.6739 231.033L25.4583 223.101L29.0341 217.208C27.7289 215.05 26.7417 212.749 26.0616 210.383L19.3049 208.981L19.1074 197.577L25.8203 195.934C26.4126 193.546 27.323 191.213 28.5515 189.011L24.7673 183.249L32.6977 175.044L38.5989 178.615L38.5879 178.626ZM44.6866 193.831C39.981 198.695 40.1236 206.439 44.9937 211.139C49.8638 215.839 57.6187 215.696 62.3243 210.832C67.0299 205.968 66.8873 198.224 62.0172 193.524C57.1471 188.825 49.3922 188.967 44.6866 193.831Z" fill="#3D7288"/>
<path d="M272.42 26.8719C274.581 25.5683 276.884 24.5824 279.253 23.9032L280.657 17.1552L292.076 16.958L293.721 23.6513C296.112 24.2428 298.449 25.152 300.654 26.3789L306.423 22.5996L314.639 30.5307L311.063 36.4243C312.368 38.5824 313.355 40.8828 314.035 43.249L320.792 44.6512L320.99 56.0549L314.288 57.6981C313.695 60.0862 312.785 62.4195 311.556 64.6214L315.341 70.3835L307.41 78.5885L301.509 75.0173C299.348 76.3209 297.045 77.3068 294.676 77.986L293.272 84.734L281.853 84.9312L280.208 78.227C277.817 77.6354 275.48 76.7262 273.276 75.4993L267.506 79.2786L259.29 71.3475L262.866 65.4539C261.561 63.2959 260.574 60.9954 259.894 58.6292L253.137 57.2271L252.939 45.8233L259.641 44.1801C260.234 41.792 261.144 39.4587 262.373 37.2568L258.588 31.4947L266.519 23.2898L272.42 26.861V26.8719ZM278.508 42.0659C273.802 46.9297 273.945 54.6746 278.815 59.3741C283.685 64.0737 291.44 63.9313 296.145 59.0674C300.851 54.2036 300.708 46.4587 295.838 41.7592C290.968 37.0597 283.213 37.2021 278.508 42.0659Z" fill="#477C92"/>
<path d="M203.844 8.04087C205.489 7.044 207.234 6.29909 209.043 5.78423L210.118 0.646528L218.817 0.493164L220.067 5.58704C221.888 6.03618 223.665 6.72632 225.343 7.65746L229.741 4.7764L235.994 10.8124L233.273 15.2928C234.272 16.936 235.017 18.6778 235.533 20.4853L240.677 21.5588L240.831 30.2458L235.73 31.4946C235.281 33.3131 234.59 35.0877 233.657 36.7638L236.531 41.1566L230.487 47.4007L226.001 44.6839C224.356 45.6808 222.612 46.4257 220.802 46.9406L219.727 52.0783L211.04 52.2316L209.789 47.1378C207.968 46.6886 206.191 45.9985 204.513 45.0673L200.115 47.9484L193.863 41.9124L196.583 37.432C195.585 35.7888 194.839 34.047 194.323 32.2395L189.179 31.166L189.025 22.49L194.126 21.2411C194.576 19.4227 195.267 17.648 196.199 15.972L193.314 11.5792L199.358 5.33509L203.855 8.05182L203.844 8.04087ZM208.473 19.6089C204.897 23.3116 204.996 29.2051 208.703 32.7763C212.411 36.3475 218.312 36.2489 221.888 32.5463C225.464 28.8436 225.365 22.9501 221.657 19.3789C217.95 15.8077 212.049 15.9063 208.473 19.6089Z" fill="#51869C"/>
<path d="M479.346 478.715C479.346 478.869 372.039 479 239.69 479C107.341 479 0.0117188 478.869 0.0117188 478.715C0.0117188 478.562 107.297 478.431 239.69 478.431C372.083 478.431 479.346 478.562 479.346 478.715Z" fill="#263238"/>
<path d="M478.293 192.943L347.611 223.682C345.033 224.284 342.445 222.696 341.83 220.11L299.118 38.9983C298.515 36.424 300.105 33.8387 302.694 33.2253L433.376 2.49768C435.953 1.89517 438.542 3.48359 439.156 6.06887L481.868 187.181C482.472 189.755 480.881 192.341 478.293 192.954V192.943Z" fill="#EBEBEB" fill-opacity="0.2"/>
<path d="M469.836 190.84L339.154 221.578C336.576 222.181 333.988 220.592 333.373 218.007L290.661 36.895C290.058 34.3207 291.648 31.7354 294.237 31.122L424.919 0.383418C427.496 -0.219084 430.085 1.36933 430.699 3.95461L473.411 185.067C474.015 187.641 472.424 190.226 469.836 190.84Z" fill="white"/>
<path d="M469.835 190.84C469.835 190.84 470.449 190.763 471.393 190.128C471.853 189.81 472.402 189.328 472.83 188.594C473.246 187.871 473.564 186.896 473.466 185.79C472.544 181.441 470.932 175.044 468.991 166.784C465.075 150.264 459.415 126.383 452.406 96.8827C448.918 82.1269 445.09 65.9579 440.987 48.6058C438.936 39.9298 436.819 30.958 434.625 21.7123C433.529 17.0895 432.421 12.401 431.302 7.64666C430.622 5.3462 430.655 2.54183 428.494 1.2711C427.518 0.624778 426.278 0.383778 425.116 0.635733C423.909 0.920552 422.691 1.20537 421.474 1.49019C382.392 10.692 339.428 20.8031 294.324 31.4181C292.997 31.7248 291.834 32.656 291.253 33.8938C290.968 34.5073 290.814 35.1865 290.825 35.8657C290.825 36.5339 291.044 37.2131 291.198 37.9251C291.856 40.7295 292.514 43.512 293.172 46.2944C294.489 51.8593 295.783 57.3805 297.077 62.8687C299.666 73.8342 302.211 84.6464 304.711 95.2724C309.713 116.513 314.539 137.009 319.146 156.53C323.742 176.051 328.108 194.598 332.188 211.961C332.704 214.119 333.186 216.31 333.724 218.391C334.064 219.377 334.733 220.242 335.61 220.79C336.488 221.338 337.541 221.59 338.561 221.469C342.718 220.56 346.864 219.541 350.89 218.61C358.963 216.715 366.707 214.907 374.1 213.166C403.661 206.253 427.594 200.655 444.135 196.788C452.406 194.871 458.822 193.382 463.188 192.363C465.36 191.87 467.016 191.486 468.146 191.224C469.265 190.972 469.835 190.851 469.835 190.851C469.835 190.851 469.265 191.004 468.157 191.278C467.038 191.552 465.382 191.947 463.21 192.472C458.855 193.513 452.439 195.036 444.19 197.008C427.66 200.918 403.748 206.571 374.199 213.56C366.806 215.302 359.073 217.131 351 219.037C346.952 219.979 342.883 220.987 338.627 221.918C337.508 222.05 336.334 221.787 335.369 221.184C334.404 220.582 333.658 219.629 333.285 218.544C332.726 216.386 332.254 214.25 331.728 212.081C327.625 194.718 323.238 176.172 318.631 156.662C314.024 137.141 309.187 116.656 304.174 95.4148C301.673 84.7888 299.117 73.9876 296.529 63.0111C295.234 57.5229 293.929 52.0018 292.624 46.4368C291.966 43.6544 291.308 40.861 290.65 38.0675C290.507 37.3774 290.266 36.6653 290.266 35.8876C290.266 35.1207 290.43 34.3649 290.748 33.6638C291.395 32.2726 292.701 31.2209 294.203 30.8704C339.307 20.2663 382.283 10.1662 421.364 0.986279C422.593 0.70146 423.81 0.416641 425.028 0.131822C426.311 -0.142042 427.704 0.131822 428.79 0.84387C429.887 1.54496 430.688 2.69519 430.973 3.96593C431.258 5.15997 431.532 6.35402 431.817 7.54807C432.936 12.3024 434.044 16.9909 435.13 21.6138C437.302 30.8594 439.419 39.8422 441.459 48.5182C445.539 65.8812 449.345 82.0502 452.812 96.8169C459.733 126.34 465.338 150.242 469.21 166.762C471.118 175.033 472.698 181.419 473.586 185.801C473.685 186.929 473.345 187.926 472.917 188.649C472.479 189.383 471.919 189.865 471.448 190.183C470.965 190.511 470.548 190.654 470.274 190.742C469.989 190.818 469.846 190.851 469.846 190.851L469.835 190.84Z" fill="#263238" fill-opacity="0.7"/>
<path d="M353.819 51.3012C353.819 51.3012 353.325 51.4983 352.393 51.7503C351.351 52.0242 350.034 52.3637 348.455 52.7691C345.131 53.6016 340.524 54.719 335.424 55.924C330.323 57.118 325.706 58.1806 322.349 58.9146C320.759 59.2542 319.421 59.539 318.368 59.7581C317.424 59.9443 316.898 60.0319 316.887 59.9881C316.887 59.9553 317.38 59.7909 318.313 59.539C319.355 59.2651 320.671 58.9255 322.25 58.5202C325.574 57.6877 330.181 56.5703 335.281 55.3653C340.382 54.1712 345 53.1087 348.356 52.3747C349.947 52.0351 351.285 51.7503 352.338 51.5312C353.281 51.345 353.808 51.2573 353.819 51.3012Z" fill="#263238" fill-opacity="0.7"/>
<path d="M422.746 51.805C422.779 51.9584 399.953 57.4576 371.752 64.0961C343.552 70.7345 320.66 75.9818 320.627 75.8284C320.594 75.6751 343.42 70.1759 371.621 63.5374C399.81 56.9099 422.702 51.6517 422.746 51.805Z" fill="#263238" fill-opacity="0.7"/>
<path d="M426.695 68.5208C426.728 68.6742 403.902 74.1734 375.702 80.8119C347.501 87.4504 324.609 92.6976 324.576 92.5442C324.543 92.3909 347.369 86.8917 375.57 80.2532C403.76 73.6257 426.651 68.3675 426.695 68.5208Z" fill="#263238" fill-opacity="0.7"/>
<path d="M430.424 84.3617C430.457 84.515 407.631 90.0142 379.43 96.6527C351.229 103.291 328.338 108.538 328.305 108.385C328.272 108.232 351.098 102.733 379.298 96.094C407.488 89.4665 430.38 84.2083 430.424 84.3617Z" fill="#263238" fill-opacity="0.7"/>
<path d="M434.373 101.078C434.406 101.232 411.58 106.731 383.379 113.37C355.179 120.008 332.287 125.255 332.254 125.102C332.221 124.948 355.047 119.449 383.248 112.811C411.437 106.183 434.329 100.925 434.373 101.078Z" fill="#263238" fill-opacity="0.7"/>
<path d="M438.102 116.918C438.134 117.072 415.309 122.571 387.108 129.209C358.907 135.848 336.015 141.095 335.982 140.942C335.95 140.788 358.776 135.289 386.976 128.651C415.166 122.023 438.058 116.765 438.102 116.918Z" fill="#263238" fill-opacity="0.7"/>
<path d="M442.051 133.635C442.084 133.788 419.258 139.288 391.057 145.926C362.856 152.565 339.965 157.812 339.932 157.659C339.899 157.505 362.725 152.006 390.925 145.367C419.115 138.74 442.007 133.482 442.051 133.635Z" fill="#263238" fill-opacity="0.7"/>
<path d="M445.781 149.476C445.814 149.629 422.988 155.128 394.788 161.767C366.587 168.405 343.695 173.653 343.662 173.499C343.629 173.346 366.455 167.847 394.656 161.208C422.846 154.581 445.737 149.323 445.781 149.476Z" fill="#263238" fill-opacity="0.7"/>
<path d="M449.412 164.877C449.445 165.031 426.619 170.53 398.418 177.168C370.218 183.807 347.326 189.054 347.293 188.901C347.26 188.747 370.086 183.248 398.287 176.61C426.476 169.982 449.368 164.724 449.412 164.877Z" fill="#263238" fill-opacity="0.7"/>
<path d="M141.358 206.594L44.68 229.329C42.7695 229.778 41.5854 231.689 42.0353 233.597L73.6267 367.588C74.0766 369.496 75.99 370.679 77.9005 370.229L174.579 347.494C176.489 347.045 177.673 345.134 177.223 343.226L145.632 209.235C145.182 207.327 143.269 206.145 141.358 206.594Z" fill="#EBEBEB"/>
<path d="M135.112 205.032L38.4339 227.768C36.5234 228.217 35.3393 230.128 35.7892 232.036L67.3806 366.027C67.8305 367.935 69.7439 369.117 71.6544 368.668L168.332 345.933C170.243 345.483 171.427 343.572 170.977 341.664L139.386 207.674C138.936 205.766 137.022 204.583 135.112 205.032Z" fill="white"/>
<path d="M168.35 345.913C168.35 345.913 168.799 345.859 169.501 345.388C169.841 345.147 170.247 344.796 170.565 344.248C170.872 343.712 171.114 342.999 171.037 342.178C170.357 338.957 169.161 334.225 167.724 328.123C164.829 315.909 160.639 298.239 155.461 276.407C152.873 265.485 150.054 253.522 147.015 240.684C145.502 234.264 143.933 227.626 142.31 220.779C141.498 217.361 140.686 213.889 139.853 210.372C139.348 208.674 139.381 206.593 137.78 205.651C137.056 205.18 136.134 204.994 135.279 205.18C134.379 205.388 133.48 205.596 132.581 205.815C103.667 212.618 71.8795 220.1 38.5125 227.954C37.5253 228.184 36.6698 228.875 36.242 229.784C36.0336 230.244 35.9239 230.737 35.9239 231.241C35.9239 231.734 36.0884 232.238 36.1981 232.764C36.6917 234.834 37.1743 236.893 37.6569 238.953C38.6222 243.072 39.5874 247.158 40.5527 251.211C42.4613 259.328 44.3479 267.325 46.2016 275.18C49.909 290.899 53.4739 306.061 56.8742 320.499C60.2745 334.937 63.4993 348.663 66.5267 361.513C66.9106 363.112 67.2616 364.733 67.6565 366.267C67.9088 367.001 68.4024 367.636 69.0605 368.042C69.7076 368.447 70.4974 368.633 71.2433 368.546C74.3145 367.877 77.3858 367.121 80.3583 366.431C86.3253 365.029 92.062 363.693 97.5244 362.411C119.396 357.295 137.1 353.154 149.341 350.295C155.45 348.871 160.2 347.776 163.436 347.02C165.048 346.647 166.266 346.373 167.099 346.176C167.922 345.99 168.35 345.902 168.35 345.902C168.35 345.902 167.933 346.012 167.11 346.22C166.277 346.417 165.059 346.713 163.458 347.096C160.233 347.863 155.494 348.992 149.385 350.449C137.155 353.341 119.462 357.525 97.6012 362.696C92.1387 363.988 86.4131 365.336 80.4351 366.749C77.4406 367.439 74.4352 368.195 71.2762 368.885C70.4425 368.984 69.587 368.787 68.874 368.337C68.161 367.888 67.6016 367.187 67.3274 366.387C66.9106 364.788 66.5706 363.211 66.1757 361.6C63.1374 348.762 59.9016 335.035 56.4903 320.597C53.079 306.159 49.5032 290.998 45.7958 275.289C43.942 267.435 42.0554 259.438 40.1359 251.321C39.1816 247.267 38.2163 243.17 37.2401 239.062C36.7575 237.003 36.2639 234.943 35.7813 232.873C35.6716 232.369 35.4961 231.843 35.4961 231.263C35.4961 230.693 35.6167 230.134 35.8581 229.62C36.3297 228.59 37.3059 227.812 38.4138 227.56C71.7807 219.717 103.568 212.246 132.493 205.443C133.403 205.235 134.303 205.027 135.202 204.807C136.156 204.61 137.176 204.807 137.988 205.333C138.8 205.859 139.392 206.703 139.601 207.634C139.809 208.521 140.017 209.397 140.226 210.285C141.048 213.801 141.871 217.274 142.672 220.692C144.284 227.527 145.842 234.177 147.355 240.596C150.372 253.435 153.191 265.408 155.758 276.33C160.88 298.173 165.026 315.854 167.889 328.079C169.293 334.192 170.467 338.924 171.125 342.167C171.191 342.999 170.949 343.733 170.631 344.281C170.302 344.829 169.896 345.179 169.545 345.42C169.194 345.661 168.887 345.771 168.679 345.837C168.47 345.891 168.361 345.913 168.361 345.913H168.35Z" fill="#263238"/>
<path d="M82.5192 242.688C82.5192 242.688 82.1463 242.831 81.4662 243.017C80.6984 243.214 79.7222 243.466 78.5595 243.773C76.1025 244.386 72.6912 245.219 68.918 246.106C65.1447 246.993 61.7225 247.771 59.2435 248.319C58.0589 248.571 57.0827 248.779 56.3039 248.943C55.6019 249.086 55.218 249.141 55.207 249.119C55.207 249.086 55.58 248.976 56.26 248.79C57.0278 248.593 58.0041 248.341 59.1667 248.034C61.6237 247.421 65.035 246.588 68.8083 245.701C72.5815 244.813 75.9928 244.036 78.4827 243.488C79.6674 243.236 80.6545 243.028 81.4224 242.864C82.1244 242.721 82.5083 242.666 82.5192 242.688Z" fill="#263238"/>
<path d="M133.513 243.06C133.534 243.17 116.654 247.245 95.791 252.153C74.9284 257.06 57.9927 260.949 57.9707 260.829C57.9488 260.719 74.8297 256.644 95.6923 251.736C116.555 246.829 133.48 242.94 133.513 243.06Z" fill="#263238"/>
<path d="M136.431 255.429C136.452 255.538 119.572 259.613 98.709 264.521C77.8464 269.428 60.9106 273.317 60.8887 273.197C60.8668 273.087 77.7477 269.012 98.6102 264.105C119.473 259.197 136.398 255.308 136.431 255.429Z" fill="#263238"/>
<path d="M139.194 267.149C139.216 267.259 122.335 271.334 101.473 276.242C80.6101 281.149 63.6743 285.038 63.6524 284.918C63.6304 284.808 80.5113 280.733 101.374 275.825C122.236 270.918 139.161 267.029 139.194 267.149Z" fill="#263238"/>
<path d="M142.112 279.517C142.134 279.627 125.253 283.702 104.391 288.61C83.528 293.517 66.5923 297.406 66.5703 297.286C66.5484 297.165 83.4293 293.101 104.292 288.193C125.154 283.286 142.079 279.397 142.112 279.517Z" fill="#263238"/>
<path d="M144.876 291.239C144.898 291.349 128.017 295.424 107.154 300.331C86.2917 305.239 69.3559 309.128 69.334 309.007C69.3121 308.898 86.193 304.823 107.056 299.915C127.918 295.007 144.843 291.119 144.876 291.239Z" fill="#263238"/>
<path d="M147.794 303.606C147.816 303.716 130.935 307.791 110.072 312.699C89.2097 317.606 72.2739 321.495 72.252 321.375C72.23 321.265 89.111 317.19 109.974 312.282C130.836 307.375 147.761 303.486 147.794 303.606Z" fill="#263238"/>
<path d="M150.557 315.317C150.579 315.427 133.698 319.502 112.836 324.41C91.9733 329.317 75.0376 333.206 75.0156 333.086C74.9937 332.965 91.8746 328.901 112.737 323.993C133.6 319.086 150.525 315.197 150.557 315.317Z" fill="#263238"/>
<path d="M153.245 326.71C153.267 326.819 136.386 330.894 115.523 335.802C94.6608 340.71 77.7251 344.599 77.7031 344.478C77.6812 344.358 94.5621 340.293 115.425 335.386C136.287 330.478 153.212 326.589 153.245 326.71Z" fill="#263238"/>
<path d="M127.721 451.274C127.721 451.274 123.827 424.501 124.145 408.923C124.474 393.346 124.123 375.818 124.123 375.818H125.922C125.922 375.818 124.704 406.732 126.032 425.388C127.359 444.022 130.836 451.274 130.836 451.274H127.721Z" fill="#659AB0"/>
<path d="M139.325 345.693C138.963 344.773 138.525 343.831 137.691 343.294C136.55 342.571 135.059 342.878 133.786 343.327C128.357 345.244 123.541 355.355 121.348 360.668L128.554 384.922C141.563 372.872 143.812 357.053 139.325 345.693Z" fill="#455A64"/>
<path d="M137.275 344.28C137.275 344.28 137.253 344.39 137.165 344.598C137.077 344.828 136.957 345.124 136.814 345.485C136.496 346.252 136.057 347.359 135.52 348.739C134.456 351.488 133.107 355.344 131.9 359.682C130.694 364.02 129.871 368.019 129.355 370.922C129.103 372.379 128.906 373.551 128.785 374.373C128.719 374.756 128.675 375.063 128.631 375.315C128.599 375.534 128.566 375.643 128.555 375.643C128.555 375.643 128.555 375.523 128.566 375.315C128.588 375.063 128.621 374.756 128.664 374.373C128.752 373.551 128.917 372.368 129.147 370.9C129.608 367.975 130.408 363.966 131.615 359.617C132.822 355.268 134.215 351.412 135.333 348.673C135.893 347.304 136.364 346.208 136.715 345.452C136.88 345.102 137.012 344.817 137.121 344.587C137.22 344.39 137.275 344.291 137.286 344.291L137.275 344.28Z" fill="#659AB0"/>
<path d="M125.352 390.739C118.595 387.015 114.613 379.993 114.241 372.302C113.977 366.924 115.634 361.644 117.509 356.583C117.674 356.145 117.86 355.673 118.277 355.443C118.847 355.126 119.549 355.411 120.12 355.728C125.034 358.522 128.006 363.846 129.586 369.257C130.639 372.861 131.187 376.662 130.694 380.387C130.211 384.112 128.072 388.165 125.352 390.739Z" fill="#455A64"/>
<path d="M125.352 390.738C125.352 390.738 125.33 390.629 125.33 390.41C125.33 390.169 125.33 389.851 125.308 389.479C125.308 388.668 125.275 387.507 125.209 386.061C125.077 383.18 124.704 379.203 123.959 374.854C123.213 370.505 122.302 366.616 121.633 363.812C121.304 362.432 121.03 361.303 120.832 360.482C120.745 360.109 120.679 359.814 120.624 359.573C120.58 359.364 120.558 359.255 120.569 359.255C120.569 359.255 120.613 359.353 120.679 359.562C120.745 359.803 120.832 360.098 120.942 360.46C121.162 361.238 121.469 362.366 121.831 363.768C122.555 366.573 123.498 370.461 124.244 374.81C124.99 379.17 125.341 383.158 125.417 386.061C125.461 387.507 125.461 388.679 125.417 389.489C125.406 389.862 125.384 390.18 125.384 390.421C125.374 390.629 125.363 390.749 125.352 390.749V390.738Z" fill="#659AB0"/>
<g opacity="0.3">
<path d="M125.352 390.739C118.595 387.015 114.613 379.993 114.241 372.302C113.977 366.924 115.634 361.644 117.509 356.583C117.674 356.145 117.86 355.673 118.277 355.443C118.847 355.126 119.549 355.411 120.12 355.728C125.034 358.522 128.006 363.846 129.586 369.257C130.639 372.861 131.187 376.662 130.694 380.387C130.211 384.112 128.072 388.165 125.352 390.739Z" fill="#659AB0"/>
</g>
<path d="M132.975 431.709C139.622 433.166 145.095 437.854 151.512 440.133C155.757 441.644 160.55 442.17 163.939 445.139C163.128 443.091 161.197 441.721 159.322 440.56C154.046 437.274 148.397 434.579 142.517 432.552C139.501 431.511 136.221 430.646 133.15 431.501" fill="#455A64"/>
<path d="M123.366 437.625C115.041 437.493 106.277 430.406 97.9844 429.989C106.661 427.196 119.077 429.474 123.366 437.625Z" fill="#455A64"/>
<path d="M126.613 417.676C130.836 416.153 135.486 416.077 139.929 416.767C144.371 417.457 148.66 418.881 152.927 420.294C152.499 417.413 150.162 415.244 147.958 413.316C146.301 411.87 144.634 410.413 142.737 409.307C140.839 408.2 138.678 407.455 136.473 407.543C133.83 407.653 131.307 409.022 129.563 411.016C127.83 413.02 126.887 415.025 126.602 417.665" fill="#455A64"/>
<path d="M109.524 408.496C104.281 404.027 96.3396 404.465 89.4512 404.618C100.047 409.679 111.454 416.613 120.58 423.997C120.866 419.133 116.149 414.149 109.524 408.496Z" fill="#455A64"/>
<g opacity="0.3">
<path d="M109.524 408.496C104.281 404.027 96.3396 404.465 89.4512 404.618C100.047 409.679 111.454 416.613 120.58 423.997C120.866 419.133 116.149 414.149 109.524 408.496Z" fill="#659AB0"/>
</g>
<path d="M128.971 402.318C131.604 400.565 134.269 398.889 137.033 397.64C139.797 396.392 142.364 394.398 145.03 392.952C148.485 391.079 151.479 388.482 154.649 386.171C157.819 383.86 161.307 381.767 165.19 381.154C162.02 380.497 158.719 380.858 155.603 381.712C152.488 382.567 149.527 383.892 146.576 385.218C142.485 387.058 138.328 388.942 134.982 391.933C131.637 394.924 128.62 397.87 128.971 402.329" fill="#455A64"/>
<path d="M151.359 437.624C151.359 437.624 151.261 437.591 151.096 437.514C150.899 437.416 150.657 437.284 150.372 437.142C149.747 436.813 148.848 436.309 147.707 435.75C147.147 435.455 146.522 435.148 145.853 434.83C145.184 434.502 144.46 434.173 143.692 433.844C142.157 433.187 140.435 432.508 138.57 432.059C136.705 431.599 134.841 431.5 133.228 431.927C132.416 432.125 131.649 432.322 130.969 432.607C130.288 432.88 129.674 433.209 129.137 433.549C128.073 434.217 127.327 434.929 126.844 435.444C126.362 435.959 126.131 436.276 126.109 436.254C126.109 436.254 126.153 436.167 126.263 436.013C126.362 435.86 126.537 435.641 126.767 435.367C127.228 434.83 127.963 434.085 129.038 433.373C129.575 433.023 130.19 432.683 130.881 432.387C131.572 432.092 132.362 431.884 133.173 431.675C134.819 431.226 136.76 431.325 138.647 431.785C140.544 432.234 142.277 432.935 143.813 433.603C144.581 433.943 145.305 434.283 145.974 434.622C146.643 434.951 147.268 435.268 147.817 435.575C148.935 436.167 149.824 436.693 150.438 437.054C150.712 437.218 150.954 437.361 151.14 437.481C151.294 437.58 151.381 437.635 151.37 437.646L151.359 437.624Z" fill="#659AB0"/>
<path d="M117.158 433.505C117.158 433.505 117.356 433.538 117.685 433.658C118.014 433.768 118.485 433.965 119.045 434.25C120.164 434.798 121.644 435.74 123.026 437.065C124.409 438.391 125.407 439.826 126.01 440.921C126.306 441.469 126.526 441.929 126.657 442.247C126.789 442.575 126.855 442.751 126.833 442.762C126.789 442.784 126.471 442.083 125.834 441.02C125.198 439.968 124.189 438.577 122.829 437.273C121.469 435.97 120.043 435.017 118.957 434.425C117.871 433.834 117.158 433.549 117.18 433.494L117.158 433.505Z" fill="#659AB0"/>
<path d="M98.7305 408.08C98.7305 408.08 98.8511 408.102 99.0815 408.19C99.3337 408.277 99.6738 408.398 100.08 408.54C100.518 408.705 101.056 408.902 101.659 409.121C102.273 409.351 102.942 409.69 103.699 410.019C106.694 411.377 110.686 413.667 114.536 416.92C116.434 418.575 118.156 420.251 119.593 421.894C121.03 423.537 122.237 425.082 123.18 426.429C124.134 427.776 124.847 428.894 125.341 429.672C125.571 430.033 125.768 430.329 125.911 430.559C126.043 430.767 126.108 430.877 126.098 430.877C126.098 430.877 126.01 430.789 125.867 430.592C125.725 430.395 125.505 430.11 125.253 429.726C124.726 428.97 123.981 427.875 123.015 426.55C122.05 425.224 120.833 423.69 119.396 422.069C117.959 420.448 116.237 418.783 114.35 417.14C110.522 413.908 106.573 411.607 103.612 410.205C102.866 409.866 102.208 409.515 101.604 409.274C101.012 409.033 100.485 408.825 100.047 408.65C99.6409 408.485 99.3228 408.343 99.0705 408.244C98.8511 408.146 98.7305 408.091 98.7305 408.08Z" fill="#659AB0"/>
<path d="M139.118 412.998C139.118 412.998 138.877 412.987 138.449 412.91C138.219 412.866 137.967 412.823 137.682 412.768C137.385 412.713 137.034 412.713 136.661 412.669C135.159 412.56 132.987 412.68 130.936 413.798C129.905 414.323 129.038 415.024 128.336 415.726C127.623 416.427 127.075 417.15 126.658 417.796C125.824 419.078 125.561 419.998 125.517 419.976C125.506 419.976 125.55 419.735 125.682 419.33C125.835 418.924 126.066 418.344 126.482 417.686C126.877 417.018 127.415 416.262 128.139 415.539C128.852 414.805 129.74 414.071 130.804 413.535C132.91 412.384 135.17 412.297 136.683 412.461C137.067 412.516 137.418 412.527 137.714 412.603C138 412.669 138.252 412.735 138.482 412.801C138.899 412.91 139.129 412.976 139.118 412.998Z" fill="#659AB0"/>
<path d="M147.475 387.069C147.475 387.069 147.377 387.146 147.157 387.266C146.916 387.398 146.609 387.562 146.225 387.77C145.413 388.208 144.251 388.844 142.847 389.676C141.443 390.52 139.786 391.55 138.02 392.809C136.265 394.069 134.379 395.537 132.635 397.312C131.779 398.21 130.978 399.141 130.43 400.16C129.882 401.212 129.366 402.219 128.883 403.183C127.918 405.122 127.139 406.908 126.569 408.442C126.01 409.975 125.648 411.257 125.439 412.144C125.231 413.032 125.154 413.535 125.121 413.535C125.121 413.535 125.121 413.404 125.154 413.163C125.187 412.922 125.231 412.571 125.33 412.122C125.505 411.224 125.823 409.92 126.372 408.376C126.92 406.82 127.688 405.024 128.642 403.063C129.114 402.088 129.629 401.069 130.178 400.017C130.748 398.955 131.56 398.002 132.426 397.093C134.192 395.296 136.09 393.828 137.867 392.568C139.644 391.32 141.322 390.301 142.748 389.479C144.174 388.669 145.358 388.055 146.181 387.65C146.576 387.464 146.894 387.31 147.135 387.19C147.355 387.091 147.475 387.036 147.475 387.047V387.069Z" fill="#659AB0"/>
<path d="M124.134 412.253C124.134 412.253 124.058 412.001 123.97 411.552C123.871 411.037 123.751 410.391 123.608 409.635C123.29 408.014 122.807 405.79 122.028 403.391C121.261 400.992 120.328 398.911 119.648 397.41C119.33 396.698 119.056 396.106 118.837 395.624C118.65 395.197 118.551 394.967 118.573 394.956C118.595 394.956 118.727 395.164 118.946 395.57C119.166 395.975 119.473 396.566 119.846 397.311C120.581 398.79 121.546 400.882 122.314 403.292C123.092 405.702 123.542 407.959 123.816 409.591C123.948 410.413 124.036 411.07 124.091 411.53C124.145 411.99 124.156 412.242 124.145 412.253H124.134Z" fill="#659AB0"/>
<path d="M123.531 393.335C123.323 390.191 122.303 387.135 120.822 384.352C116.785 376.717 109.184 371.064 100.705 369.366C106.913 378.601 113.122 387.847 119.33 397.081L121.732 402.033C123.378 399.349 123.739 396.468 123.531 393.324V393.335Z" fill="#455A64"/>
<path d="M150.24 447.954H106.936V455.622H150.24V447.954Z" fill="#FF725E"/>
<path d="M110.17 454.1L113.855 477.882H142.605L147.003 454.1H110.17Z" fill="#FF725E"/>
<path d="M150.218 455.633C150.218 455.72 140.455 455.786 128.401 455.786C116.346 455.786 106.584 455.72 106.584 455.633C106.584 455.545 116.346 455.479 128.401 455.479C140.455 455.479 150.218 455.545 150.218 455.633Z" fill="#659AB0"/>
<path d="M402.301 238.799L390.751 237.922L395.819 170.979C396.049 167.89 392.517 159.258 390.4 156.99C369.219 134.281 343.52 149.081 341.852 171.121L337.103 233.88L325.553 233.004L330.225 171.264C331.794 150.472 349.3 133.92 370.163 134.741C392.012 135.607 408.674 154.438 407.04 176.04L402.29 238.799H402.301Z" fill="#E0E0E0"/>
<path d="M402.301 238.799C402.301 238.799 402.323 238.372 402.377 237.539C402.432 236.707 402.52 235.491 402.63 233.892C402.86 230.693 403.2 225.982 403.639 219.925C404.078 213.867 404.626 206.472 405.251 197.873C405.569 193.579 405.909 188.989 406.271 184.125C406.535 179.261 407.357 174.102 406.699 168.723C406.118 163.355 404.22 157.867 401.072 152.882C400.666 152.269 400.282 151.634 399.866 151.02C399.405 150.429 398.944 149.848 398.484 149.257C397.606 148.03 396.465 147.011 395.445 145.872C394.919 145.313 394.304 144.853 393.734 144.327C393.131 143.834 392.593 143.264 391.946 142.837C390.663 141.95 389.434 140.953 388.019 140.219C385.321 138.532 382.272 137.393 379.157 136.385C378.356 136.199 377.555 136.012 376.743 135.826L375.537 135.552C375.131 135.487 374.714 135.443 374.297 135.388C373.475 135.289 372.641 135.18 371.808 135.07C370.974 135.005 370.129 135.016 369.285 134.983C362.517 134.786 355.541 136.648 349.365 140.219C346.283 142.016 343.475 144.338 340.92 146.945C338.408 149.607 336.302 152.674 334.569 155.972C332.89 159.313 331.75 162.939 331.048 166.674C330.477 170.432 330.324 174.321 329.995 178.209C328.821 193.787 327.603 209.912 326.353 226.421C326.189 228.622 326.024 230.824 325.859 233.004L325.607 232.719C329.534 233.015 333.406 233.311 337.157 233.596L336.872 233.848C337.815 221.371 338.748 209.156 339.647 197.292C340.097 191.355 340.547 185.516 340.985 179.765C341.205 176.884 341.424 174.036 341.633 171.21C341.885 168.361 342.532 165.568 343.563 162.961C345.713 157.768 349.409 153.343 353.961 150.44C354.543 150.089 355.08 149.684 355.683 149.399L357.471 148.49C358.711 147.997 359.928 147.438 361.212 147.131C362.473 146.715 363.778 146.529 365.062 146.299C365.709 146.211 366.356 146.189 367.003 146.134L367.968 146.058L368.934 146.08C371.522 146.036 374.045 146.551 376.469 147.197C378.882 147.931 381.142 148.994 383.226 150.275C387.317 152.948 390.663 156.563 392.736 160.693C393.866 162.72 394.535 164.911 395.116 167.058C395.544 169.249 395.851 171.44 395.763 173.598C395.752 174.134 395.73 174.671 395.719 175.208C395.676 175.734 395.643 176.26 395.599 176.785C395.522 177.837 395.434 178.878 395.357 179.907C395.204 181.967 395.039 183.983 394.897 185.965C394.283 193.885 393.723 201.159 393.219 207.732C392.198 220.856 391.387 231.109 390.86 237.934L390.783 237.846C394.71 238.164 397.584 238.394 399.482 238.547C400.425 238.624 401.127 238.69 401.61 238.723C402.081 238.766 402.323 238.788 402.323 238.788C402.323 238.788 402.103 238.788 401.643 238.755C401.171 238.723 400.469 238.679 399.526 238.613C397.606 238.482 394.721 238.273 390.773 238H390.696V237.912C391.2 231.087 391.946 220.823 392.911 207.699C393.394 201.137 393.942 193.853 394.524 185.932C394.666 183.95 394.82 181.934 394.974 179.875C395.05 178.845 395.127 177.804 395.204 176.753C395.248 176.227 395.281 175.701 395.325 175.175C395.336 174.649 395.347 174.123 395.368 173.587C395.456 171.461 395.138 169.303 394.721 167.145C394.14 165.031 393.482 162.873 392.363 160.879C390.312 156.826 387.01 153.266 382.985 150.648C380.934 149.388 378.707 148.336 376.338 147.624C373.957 146.989 371.468 146.485 368.934 146.54L367.979 146.518L367.025 146.595C366.389 146.649 365.753 146.671 365.117 146.759C363.855 146.989 362.572 147.175 361.343 147.58C360.082 147.887 358.886 148.435 357.669 148.917L355.914 149.815C355.311 150.1 354.784 150.505 354.225 150.845C349.749 153.704 346.141 158.053 344.024 163.147C343.015 165.71 342.389 168.449 342.137 171.242C341.929 174.069 341.709 176.917 341.49 179.798C341.051 185.549 340.612 191.399 340.174 197.325C339.274 209.189 338.353 221.403 337.41 233.881L337.388 234.155L337.113 234.133C333.362 233.848 329.49 233.563 325.563 233.256L325.289 233.234L325.311 232.96C325.476 230.781 325.64 228.579 325.805 226.377C327.055 209.857 328.284 193.732 329.457 178.166C329.786 174.277 329.94 170.421 330.521 166.587C331.245 162.796 332.397 159.127 334.108 155.742C335.874 152.4 338.013 149.289 340.547 146.595C343.135 143.955 345.987 141.61 349.113 139.792C355.365 136.188 362.44 134.304 369.296 134.512C370.151 134.545 371.007 134.534 371.851 134.599L374.736 134.972C375.263 135.07 375.789 135.158 376.316 135.257L378.718 135.815C379.091 135.914 379.453 136.023 379.826 136.122C382.787 137.097 385.683 138.214 388.261 139.836C389.687 140.581 390.937 141.588 392.231 142.487C392.89 142.925 393.438 143.494 394.041 143.998C394.623 144.524 395.248 144.995 395.774 145.565C396.816 146.715 397.957 147.745 398.846 148.994C399.317 149.596 399.778 150.188 400.239 150.779C400.666 151.404 401.05 152.039 401.456 152.663C404.626 157.703 406.535 163.256 407.105 168.679C407.752 174.123 406.919 179.305 406.633 184.18C406.249 189.065 405.898 193.666 405.558 197.972C404.889 206.571 404.308 213.987 403.825 220.045C403.343 226.081 402.981 230.77 402.718 233.968C402.586 235.546 402.487 236.751 402.421 237.572C402.356 238.383 402.312 238.788 402.312 238.788L402.301 238.799Z" fill="#83B8CE"/>
<path d="M315.052 191.123L419.473 199.001C421.737 199.172 423.425 201.145 423.255 203.395L417.165 283.912C417.009 285.966 415.221 287.5 413.165 287.345L308.372 279.439L315.053 191.112L315.052 191.123Z" fill="#51869C"/>
<g opacity="0.3">
<path d="M315.112 191.204L419.118 199.051C421.612 199.239 423.471 201.412 423.284 203.891L417.256 283.578C417.084 285.861 415.096 287.568 412.81 287.395L308.432 279.52L315.113 191.193L315.112 191.204Z" fill="#141414"/>
</g>
<path d="M314.545 191.089L406.334 198.014C408.784 198.199 410.624 200.337 410.439 202.784L404.505 281.236C404.278 284.229 401.655 286.481 398.658 286.255L308.018 279.417C305.481 279.225 303.58 277.017 303.772 274.482L309.77 195.178C309.955 192.731 312.096 190.893 314.546 191.078L314.545 191.089Z" fill="#51869C"/>
<g opacity="0.3">
<path d="M371.654 232.007C372.181 225.073 366.872 219.037 359.863 218.719C353.326 218.424 347.512 223.517 346.964 230.035C346.481 235.71 349.947 240.749 355.037 242.633L345.691 259.043L366.949 261.037L361.772 243.137C367.059 242.053 371.216 237.638 371.643 232.007H371.654Z" fill="#141414"/>
</g>
<path d="M404.77 278.4C404.616 278.389 405.735 262.998 407.249 244.036C408.763 225.062 410.123 209.704 410.265 209.715C410.419 209.726 409.3 225.106 407.786 244.079C406.273 263.042 404.913 278.411 404.77 278.4Z" fill="#83B8CE"/>
<path d="M387.286 199.286C387.286 199.439 373.706 198.716 356.979 197.676C340.241 196.635 326.694 195.671 326.705 195.518C326.705 195.364 340.284 196.087 357.023 197.128C373.75 198.169 387.307 199.133 387.296 199.286H387.286Z" fill="white"/>
<path d="M346.054 236.751C346.054 236.751 345.846 236.488 345.605 235.94C345.352 235.404 345.056 234.582 344.826 233.541C344.354 231.471 344.288 228.371 345.55 225.303C346.822 222.247 349.049 220.089 350.848 218.95C351.747 218.369 352.537 217.997 353.096 217.789C353.656 217.58 353.974 217.504 353.985 217.537C354.029 217.635 352.767 218.051 351.067 219.267C349.378 220.451 347.272 222.576 346.054 225.512C344.848 228.447 344.837 231.427 345.199 233.465C345.55 235.524 346.142 236.707 346.054 236.751Z" fill="white"/>
<path d="M350.496 242.962C350.409 243.083 349.707 242.732 348.917 242.174C348.138 241.615 347.568 241.067 347.655 240.936C347.743 240.815 348.445 241.166 349.235 241.725C350.014 242.283 350.584 242.831 350.496 242.962Z" fill="white"/>
<path d="M367.607 137.678C367.607 137.678 366.861 137.733 365.512 137.82C364.163 137.897 362.221 138.116 359.863 138.653C355.19 139.682 348.829 142.355 343.597 147.559C338.375 152.762 335.677 159.127 334.635 163.783C334.098 166.127 333.867 168.066 333.79 169.413C333.703 170.761 333.692 171.506 333.648 171.506C333.626 171.506 333.615 171.319 333.593 170.958C333.593 170.596 333.538 170.07 333.571 169.391C333.593 168.033 333.758 166.061 334.262 163.684C335.227 158.952 337.904 152.456 343.213 147.153C348.532 141.862 355.037 139.2 359.775 138.258C362.167 137.765 364.13 137.601 365.49 137.59C366.17 137.557 366.697 137.601 367.059 137.612C367.421 137.623 367.607 137.645 367.607 137.667V137.678Z" fill="white"/>
<path d="M332.474 181.003C332.321 180.992 332.332 179.546 332.474 177.772C332.628 175.997 332.869 174.573 333.023 174.595C333.176 174.606 333.165 176.052 333.023 177.827C332.869 179.601 332.628 181.025 332.474 181.003Z" fill="white"/>
</g>
<defs>
<clipPath id="clip0_4008_24401">
<rect width="482" height="479" fill="white"/>
</clipPath>
</defs>
</svg>
