<svg width="482" height="493" viewBox="0 0 482 493" fill="none" xmlns="http://www.w3.org/2000/svg">
<g clip-path="url(#clip0_4008_17571)">
<path d="M456.864 347.658L411.565 330.422C408.432 329.232 406.866 325.728 408.057 322.598L431.936 259.95C433.128 256.82 436.635 255.255 439.768 256.445L468.5 267.377L482.012 298.74L464.706 344.142C463.515 347.272 460.007 348.837 456.875 347.647L456.864 347.658Z" fill="url(#paint0_linear_4008_17571)" fill-opacity="0.16"/>
<path d="M468.488 267.377L461.771 285.009C460.657 287.918 462.124 291.169 465.036 292.282L482 298.74L468.488 267.377Z" fill="#EBEBEB"/>
<path d="M458.253 282.838C458.164 283.07 453.4 281.461 447.62 279.257C441.829 277.053 437.208 275.091 437.296 274.86C437.384 274.629 442.138 276.238 447.929 278.442C453.719 280.646 458.341 282.607 458.253 282.838Z" fill="#33687E" fill-opacity="0.4"/>
<path d="M467.982 297.958C467.894 298.189 460.107 295.434 450.577 291.809C441.047 288.183 433.404 285.064 433.481 284.833C433.569 284.601 441.356 287.356 450.886 290.982C460.405 294.608 468.059 297.726 467.971 297.958H467.982Z" fill="#33687E" fill-opacity="0.4"/>
<path d="M467.916 307.468C467.827 307.699 459.345 304.68 448.955 300.724C438.565 296.767 430.227 293.384 430.315 293.164C430.403 292.932 438.885 295.952 449.275 299.908C459.654 303.853 468.004 307.247 467.916 307.468Z" fill="#33687E" fill-opacity="0.4"/>
<path d="M464.927 315.325C464.839 315.557 456.357 312.537 445.967 308.581C435.577 304.625 427.239 301.242 427.327 301.021C427.415 300.79 435.897 303.809 446.287 307.765C456.666 311.711 465.016 315.105 464.927 315.325Z" fill="#33687E" fill-opacity="0.4"/>
<path d="M461.927 323.171C461.839 323.402 453.357 320.383 442.967 316.427C432.577 312.47 424.239 309.087 424.327 308.867C424.415 308.636 432.897 311.655 443.287 315.611C453.666 319.556 462.016 322.95 461.927 323.171Z" fill="#33687E" fill-opacity="0.4"/>
<path d="M458.937 331.028C458.849 331.26 450.367 328.24 439.977 324.284C429.587 320.328 421.248 316.945 421.337 316.724C421.425 316.493 429.907 319.512 440.297 323.469C450.676 327.414 459.025 330.808 458.937 331.028Z" fill="#33687E" fill-opacity="0.4"/>
<path d="M242.367 146.643C242.235 145.254 242.08 143.899 241.882 142.532C242.069 143.899 242.224 145.265 242.367 146.643Z" fill="url(#paint1_linear_4008_17571)" fill-opacity="0.16"/>
<path d="M231.327 163.679C230.135 160.991 229.871 158.015 229.076 155.183C228.657 153.662 227.94 152.053 226.518 151.381C225.58 150.94 224.455 150.995 223.462 150.687C219.867 149.607 218.885 144.593 215.488 143.039C214.407 142.554 213.216 142.466 212.069 142.323C207.513 141.783 202.804 140.207 199.936 136.636C198.998 135.479 198.281 134.124 197.123 133.176C195.954 132.239 194.145 131.832 193.009 132.79C193.969 134.708 194.917 136.636 195.855 138.532C196.715 140.262 197.609 142.047 199.042 143.315C200.509 144.604 202.66 145.276 204.403 144.472C204.976 144.207 205.561 143.766 206.212 143.832C206.675 143.888 207.072 144.218 207.381 144.582C209.863 147.326 209.057 151.877 206.631 154.687C204.226 157.475 200.653 158.93 197.212 160.296C195.976 160.781 194.675 161.277 193.362 161.046C190.98 160.605 189.711 158.015 189.016 155.69C187.461 150.544 186.711 144.957 183.513 140.615C182.498 139.248 181.229 138.003 180.612 136.405C179.961 134.675 180.115 132.658 179.079 131.137C177.998 129.54 175.715 128.625 175.56 126.696C175.461 125.352 176.575 124.162 177.81 123.589C179.046 122.994 180.424 122.817 181.693 122.299C182.189 122.09 182.752 121.726 182.774 121.186C182.774 120.382 181.66 120.051 181.373 119.302C181.064 118.454 181.935 117.671 182.299 116.845C183.082 114.96 181.13 113.065 179.222 112.293C177.336 111.522 175.053 110.971 174.17 109.12C173.762 108.271 173.729 107.29 173.553 106.376C173.112 104.05 171.402 101.802 169.053 101.417C166.692 101.031 164.078 103.125 164.453 105.472C164.685 106.761 165.644 107.753 166.163 108.954C166.703 110.144 166.549 111.908 165.314 112.293C163.295 112.91 161.354 109.219 159.666 110.486C160.361 112.844 161.034 115.214 161.729 117.594C159.071 118.938 155.905 116.503 154.769 113.737C153.633 110.993 153.6 107.841 152.254 105.185C150.909 102.519 147.28 100.535 144.964 102.419C144.853 105.836 149.365 107.224 151.372 109.99C152.817 111.985 152.607 115.236 150.467 116.503C148.35 117.77 144.986 115.566 145.791 113.241C146.078 112.437 146.75 111.764 146.828 110.894C146.905 109.814 146 108.954 145.173 108.26C143.883 107.169 142.592 106.089 141.313 105.009C140.486 104.315 139.603 103.588 138.566 103.279C135.908 102.508 133.261 104.668 131.86 107.026C130.46 109.406 129.665 112.194 127.724 114.178C124.934 117.054 119.65 117.23 117.036 114.211C114.4 111.191 115.746 105.549 119.617 104.447C121.073 104.039 122.926 104.083 123.698 102.794C125.044 100.513 121.195 97.5927 122.529 95.2785C123.544 93.5153 126.235 94.3198 128.198 93.7247C130.14 93.1296 131.232 91.1681 132.39 89.482C133.526 87.807 135.313 86.121 137.309 86.5618C137.155 85.3936 137 84.1263 137.519 83.0684C138.037 81.9885 139.504 81.3052 140.463 81.9885C139.482 83.5974 140.651 85.8455 142.372 86.6609C144.081 87.4654 146.078 87.278 147.964 87.0687C149.85 86.8372 152.21 86.143 152.365 84.2586C152.42 83.6415 152.188 82.9913 152.42 82.4182C153.247 80.1702 157.394 83.2668 158.993 81.4595C159.92 80.5228 158.894 78.8478 157.604 78.5392C156.335 78.2086 155.012 78.6935 153.699 78.7266C152.387 78.7817 150.798 78.0874 150.732 76.787C150.677 75.4977 152.122 74.583 152.276 73.3047C152.53 71.1558 148.868 70.5938 147.589 72.346C146.32 74.0982 146.761 76.5005 147.148 78.6274C147.556 80.7652 147.743 83.2778 146.166 84.7765C145.493 85.7904 143.739 85.2614 143.166 84.1814C142.57 83.1015 142.703 81.8011 142.603 80.5889C142.504 79.3547 141.975 77.9772 140.772 77.6466C139.945 77.4152 139.063 77.8229 138.213 77.9331C134.871 78.3409 132.544 74.01 133.603 70.8252C134.64 67.6184 137.684 65.5577 140.618 63.9267C142.769 62.7366 145.449 61.6236 147.578 62.8358C148.581 63.3978 149.265 64.3565 150.247 64.9296C151.934 65.9324 154.03 65.5687 155.982 65.6018C159.038 65.6789 162.06 66.847 164.343 68.8527C165.203 69.6351 166.019 70.9465 165.347 71.8832C164.619 72.886 162.523 73.0954 162.887 74.2635C165.159 75.0128 167.872 73.2607 168.115 70.9024C169.229 71.3983 170.034 72.5333 170.134 73.7455C172.571 71.266 177.27 71.6297 179.266 74.4949C179.807 75.2442 180.193 76.1479 180.954 76.6658C181.726 77.1617 183.071 76.9193 183.16 76.0156C183.193 75.7291 183.104 75.4426 183.005 75.1671C182.542 73.8557 182.068 72.5774 181.604 71.2881C183.391 70.3293 185.509 71.8281 186.722 73.437C191.222 79.4539 194.432 75.8393 200.774 76.8201C205.065 77.4703 206.951 80.2253 209.366 83.5423C216.789 93.7578 226.595 102.133 233.345 112.822C234.051 113.935 234.713 115.07 235.33 116.227C235.22 115.941 235.121 115.654 234.999 115.368C232.341 108.392 229.054 101.725 225.194 95.4438C224.367 94.0994 223.517 92.777 222.657 91.4656C222.117 90.6612 221.565 89.8347 221.003 89.0412C220.297 88.0054 219.536 87.0025 218.797 86.0108C218.201 85.2063 217.606 84.4129 216.988 83.6525C216.569 83.1125 216.128 82.5725 215.675 82.0436C215.212 81.4264 214.716 80.8314 214.175 80.2363L212.565 78.3739C212.411 78.1866 212.234 77.9882 212.047 77.8009C211.484 77.1507 210.888 76.5115 210.293 75.8834C210.26 75.8063 210.194 75.7512 210.116 75.6961C209.962 75.5197 209.785 75.3545 209.62 75.1781C209.135 74.6382 208.616 74.1202 208.12 73.6023C207.293 72.7537 206.443 71.9162 205.583 71.1007C204.877 70.3955 204.138 69.7122 203.388 69.04C202.737 68.4449 202.076 67.8499 201.403 67.2768C200.752 66.7038 200.09 66.1418 199.417 65.5908C198.612 64.8965 197.785 64.2243 196.936 63.5521H196.914C194.586 61.6897 192.182 59.9265 189.722 58.2735C189.105 57.8548 188.509 57.447 187.891 57.0393C187.274 56.6205 186.645 56.2348 186.027 55.8491C185.388 55.4634 184.781 55.0667 184.141 54.692C183.502 54.2843 182.873 53.9206 182.233 53.557C181.715 53.2484 181.218 52.9619 180.7 52.6974C180.435 52.5211 180.182 52.3888 179.917 52.2566C178.825 51.6395 177.711 51.0444 176.586 50.4934C176.023 50.2069 175.472 49.9204 174.898 49.6449C174.192 49.2812 173.453 48.9396 172.726 48.609C172.626 48.5539 172.516 48.4988 172.395 48.4547C171.744 48.1462 171.082 47.8376 170.409 47.5511C169.472 47.1434 168.523 46.7466 167.586 46.3609C166.505 45.9201 165.435 45.4793 164.332 45.0716C163.119 44.6088 161.905 44.168 160.681 43.7602C159.446 43.3415 158.199 42.9337 156.953 42.548C155.707 42.1623 154.449 41.8207 153.181 41.4681C150.677 40.7959 148.14 40.2008 145.581 39.6828C145.548 39.6608 145.482 39.6608 145.449 39.6498C144.467 39.4624 143.486 39.2641 142.504 39.1098C142.427 39.0878 142.372 39.0767 142.316 39.0767C141.897 38.9996 141.456 38.9225 141.004 38.8674C139.173 38.5588 137.331 38.3053 135.467 38.096C135.257 38.0629 135.026 38.0409 134.794 38.0188C134.254 37.9417 133.713 37.9086 133.162 37.8425C131.926 37.7323 130.702 37.6331 129.456 37.556C128.165 37.4568 126.864 37.4017 125.551 37.3686C124.184 37.3135 122.816 37.2915 121.459 37.2915C117.841 37.2915 114.268 37.4458 110.727 37.7764C109.878 37.8315 109.051 37.9086 108.224 38.0078C107.363 38.107 106.492 38.1951 105.632 38.3164C104.771 38.4266 103.9 38.5478 103.051 38.68C102.19 38.8123 101.341 38.9445 100.47 39.0988C99.7417 39.209 98.9916 39.3522 98.2637 39.5065C96.4548 39.8481 94.668 40.2338 92.9032 40.6636C92.076 40.851 91.2488 41.0713 90.4215 41.3028C89.5943 41.5121 88.7671 41.7436 87.9619 41.975C86.5942 42.3607 85.2706 42.7794 83.9471 43.2092H83.925C82.8441 43.5729 81.7521 43.9365 80.6933 44.3002C80.6712 44.3002 80.6381 44.3222 80.6161 44.3333C79.5241 44.719 78.4653 45.1157 77.3844 45.5455C77.3292 45.5675 77.2741 45.5785 77.2079 45.6006C76.2262 45.9863 75.2446 46.383 74.285 46.7907C73.0717 47.2866 71.8805 47.8266 70.7114 48.3666C69.7077 48.8294 68.726 49.2922 67.7664 49.7661C66.7296 50.284 65.6928 50.802 64.6671 51.342C64.6229 51.364 64.5899 51.375 64.5568 51.3971C63.5751 51.915 62.5935 52.455 61.6339 53.006C60.6302 53.568 59.6485 54.141 58.6779 54.7581H58.6558C57.7294 55.3202 56.8249 55.8712 55.9205 56.4442C55.5785 56.6536 55.2477 56.885 54.9057 57.1164C53.9461 57.7335 53.0196 58.3617 52.0821 59.0229C50.924 59.8163 49.81 60.6318 48.696 61.4583C47.7143 62.1856 46.7548 62.935 45.8172 63.6843C40.3796 68.0262 35.2948 72.8088 30.7065 77.9992C29.0741 79.8065 27.5299 81.6468 26.0299 83.5313C24.7614 85.1402 23.5261 86.7821 22.357 88.4682C21.2981 89.9339 20.2834 91.4326 19.3017 92.9533C20.2834 91.4326 21.3091 89.9339 22.357 88.4682C22.6658 88.4351 22.9746 88.3911 23.2835 88.369C25.0151 88.2368 26.8461 88.2919 28.4013 87.5425C29.8461 86.8262 30.8609 85.5479 32.1734 84.6222C35.5154 82.2419 40.9972 81.8011 41.9017 77.8009C42.2105 76.4564 41.8465 74.9908 42.3428 73.7125C43.2804 71.3101 46.5011 70.9685 49.071 71.0016C50.1629 71.0016 51.4534 71.1558 51.9498 72.1146C52.3137 72.7868 52.1042 73.6353 51.8395 74.3406C50.2622 78.8368 47.0746 82.7158 43.0157 85.1732C39.6737 87.2119 35.3059 88.7878 34.3794 92.5897C34.8426 93.879 37.1809 93.7798 37.3795 95.1243C37.5118 96.2042 36.1331 96.7552 35.6257 97.7139C34.8978 99.1135 36.5633 100.822 38.1626 100.744C39.7619 100.667 41.0855 99.5102 42.2546 98.4413C45.751 95.1904 49.424 91.697 50.6924 87.0907C51.2328 85.1842 51.4203 82.9582 52.9645 81.6909C54.7954 80.1922 58.0602 81.2281 58.6779 83.5202C60.2 82.6717 62.5604 82.0436 63.3545 83.6194C63.6192 84.1814 63.542 84.8316 63.6854 85.4267C64.1818 87.8841 67.5458 88.9972 67.8988 91.4767C68.3069 94.3418 64.634 95.8185 61.7662 96.2593C59.1742 96.667 56.5712 97.0638 53.9792 97.4935C52.8432 97.6699 51.674 97.8572 50.7475 98.5294C49.821 99.2237 49.2475 100.524 49.7879 101.549C50.0968 102.111 50.6924 102.475 51.1336 102.937C53.2844 105.086 51.5196 109.527 48.4754 109.627C47.4386 109.66 46.4128 109.285 45.376 109.241C42.2987 109.109 39.8612 111.819 38.3942 114.519C36.9383 117.23 35.8353 120.316 33.3757 122.167C29.416 125.143 22.5886 124.448 20.6694 129.022C19.8973 130.862 20.3054 132.945 20.6143 134.917C20.9231 136.879 21.0554 139.072 19.8973 140.703C18.7613 142.312 15.8053 142.664 14.956 140.857C14.592 140.075 14.7023 139.149 14.8457 138.3C15.3089 135.457 15.7501 132.614 16.1913 129.771C16.5222 127.655 16.809 125.297 15.5516 123.567C13.7979 121.142 9.88231 121.374 7.61018 123.313C5.36011 125.253 4.42258 128.283 3.78286 131.193C3.31961 133.341 2.77915 136.383 1.58794 138.84C1.17984 141.221 0.859973 143.645 0.606289 146.081C0.352605 148.582 0.187158 151.051 0.0878906 153.596C0.396724 153.343 0.727616 153.034 1.06954 152.67C2.28281 151.425 4.72038 146.136 6.9153 148.736C7.47782 149.387 7.48885 150.444 6.94839 151.139C6.27558 151.998 4.92995 152.197 4.41155 153.133C3.77183 154.246 4.66524 155.635 5.70203 156.362C6.73883 157.112 8.00725 157.574 8.73521 158.632C10.136 160.649 8.79036 163.701 10.1581 165.762C11.3272 167.525 13.831 167.647 15.9597 167.878C16.2134 167.911 16.445 167.955 16.6877 167.988C17.2833 163.757 19.2686 160.318 25.0372 159.018C33.0007 157.211 43.4569 163.801 47.9349 169.796C52.9314 176.496 55.3028 185.995 62.9575 189.356C68.4392 191.758 76.2262 190.888 78.8954 196.254C81.2779 201.059 77.1307 206.459 76.491 211.782C76.0828 215.297 77.241 218.79 77.5057 222.306C77.7594 225.843 76.7226 229.953 73.5019 231.43C71.7151 232.235 69.465 232.146 68.0201 233.491C65.4612 235.915 67.5569 240.907 64.998 243.332C64.0935 244.18 62.8472 244.489 61.7442 245.04C55.9977 247.938 56.1521 256.39 58.8213 262.253C58.9206 262.462 59.0088 262.661 59.1081 262.87C67.612 267.961 76.7557 272.039 86.4288 274.915C97.5026 278.276 109.249 280.061 121.426 280.061C142.019 280.061 161.442 274.937 178.439 265.879H178.461C182.156 263.895 185.752 261.746 189.215 259.41C194.575 255.817 199.616 251.806 204.304 247.42C207.557 244.39 210.646 241.172 213.536 237.8C215.576 235.452 217.495 233.017 219.337 230.515C220.275 229.226 221.201 227.937 222.073 226.614C224.731 222.735 227.146 218.68 229.319 214.492C232.474 208.465 235.11 202.117 237.183 195.549C239.323 188.926 240.878 182.039 241.816 174.975C242.18 172.242 242.467 169.476 242.665 166.699C241.342 167.988 239.61 168.903 237.779 168.87C234.856 168.837 232.452 166.39 231.282 163.701L231.327 163.679Z" fill="url(#paint2_linear_4008_17571)" fill-opacity="0.16"/>
<path d="M15.8616 190.579C15.4755 187.096 16.6337 183.625 16.6888 180.11C16.7219 177.685 16.5565 175.129 16.5123 172.693C14.4387 172.594 12.3541 172.308 10.3357 171.834C9.91655 171.735 9.4533 171.602 9.19961 171.261C8.9349 170.897 8.96799 170.412 8.94593 169.971C8.79151 167.238 6.1554 165.442 3.79504 164.076C2.58176 163.37 1.35746 162.676 0.0449219 162.235C0.0449219 162.522 0.0449219 162.797 0.0669814 163.084C0.55229 176.594 3.24355 189.554 7.79883 201.599C9.87243 207.098 12.3541 212.409 15.2219 217.5C16.4131 219.704 17.7256 221.875 19.0823 224.013C20.7698 226.647 22.5456 229.215 24.4427 231.694C26.2075 234.074 28.0936 236.4 30.0789 238.626C32.7922 241.722 35.66 244.654 38.6711 247.464C41.3403 249.965 44.1308 252.324 47.0316 254.572C40.4028 236.785 34.1489 218.625 22.8103 203.494C19.8323 199.538 16.402 195.505 15.8506 190.59L15.8616 190.579Z" fill="url(#paint3_linear_4008_17571)" fill-opacity="0.16"/>
<path d="M0.0330892 156.483C0.0220595 157.211 0 157.938 0 158.676C0 159.271 0.0220595 159.856 0.0330892 160.451C0.0330892 159.856 0 159.271 0 158.676C0 157.949 0.0220595 157.222 0.0330892 156.483Z" fill="url(#paint4_linear_4008_17571)" fill-opacity="0.16"/>
<g opacity="0.6">
<path d="M53.8477 259.487C54.8734 260.182 55.8992 260.854 56.947 261.504C55.8992 260.854 54.8624 260.182 53.8477 259.487Z" fill="url(#paint5_linear_4008_17571)" fill-opacity="0.16"/>
</g>
<path d="M156.754 251.872C155.993 251.872 155.232 251.795 154.482 251.63C151.979 251.079 150.07 249.635 149.122 247.574C148.35 245.91 148.273 244.07 148.195 242.285C148.14 241.083 148.085 239.838 147.809 238.67C147.324 236.576 146.166 234.769 144.953 232.863C144.048 231.441 143.111 229.975 142.482 228.377C141.324 225.457 141.236 222.261 141.147 219.176L141.125 218.426C140.486 197.07 134.529 179.746 123.897 168.308C122.419 166.721 120.764 165.178 118.68 164.616C116.253 163.977 113.507 164.924 111.996 166.919C111.61 167.426 111.301 168.01 110.992 168.572C110.507 169.454 110.01 170.368 109.238 171.074C108.135 172.087 106.613 172.495 104.959 172.231C102.786 171.889 100.701 170.445 99.6203 168.55C97.7343 165.233 98.0762 161.134 98.3519 157.85L99.4549 144.604C99.6203 142.554 99.852 139.755 101.517 137.837C102.797 136.35 104.65 135.678 106.448 135.016C107.771 134.531 109.15 134.025 110.253 133.198C112.382 131.6 113.33 129.088 114.323 126.432C114.874 124.955 115.459 123.423 116.253 122.046C117.698 119.577 121.117 117.902 123.864 118.299C125.165 118.486 126.136 119.148 126.654 120.161C127.967 117.693 129.588 116.205 131.607 115.632C135.996 114.376 141.357 117.847 146.53 121.208C151.262 124.272 155.718 127.17 159.225 126.531C160.107 126.366 161.001 126.123 161.872 125.87C163.714 125.352 165.622 124.812 167.575 125.087C172.681 125.804 175.284 131.336 176.983 136.074L185.288 159.26C186.325 162.147 187.66 165.31 190.395 166.379C191.476 166.798 192.634 166.842 193.87 166.886C195.072 166.93 196.318 166.974 197.476 167.404C199.55 168.153 200.862 169.773 201.293 172.087C201.998 175.911 200.079 180.925 196.826 183.736C195.325 185.036 193.616 186.204 191.961 187.328C188.211 189.885 184.66 192.298 183.127 196.265C182.31 198.392 182.211 200.761 182.112 203.054C182.013 205.511 181.902 208.046 180.932 210.349C180.093 212.343 178.682 214.007 177.314 215.605C176.476 216.586 175.615 217.6 174.898 218.68C172.24 222.68 171.501 227.65 170.795 232.444C170.707 233.061 170.608 233.678 170.52 234.284C169.692 239.629 168.247 245.602 163.913 249.315C162.016 250.946 159.38 251.85 156.777 251.85L156.754 251.872Z" fill="#33687E" fill-opacity="0.2"/>
<g opacity="0.6">
<path d="M0.0662924 154.29C0.0332031 155.006 0.0442329 155.745 0.0332031 156.483C0.0442329 155.756 0.0332031 155.017 0.0662924 154.29Z" fill="url(#paint6_linear_4008_17571)" fill-opacity="0.16"/>
</g>
<g opacity="0.6">
<path d="M0.0325141 160.45C0.0325141 161.045 0.0325141 161.64 0.0656034 162.224H0.0545736C0.0325141 161.64 0.0325141 161.045 0.0214844 160.45H0.0325141Z" fill="url(#paint7_linear_4008_17571)" fill-opacity="0.16"/>
</g>
<path d="M16.7316 167.988C16.4779 167.955 16.2462 167.911 16.0036 167.878C13.8748 167.646 11.3711 167.536 10.2019 165.762C8.83425 163.712 10.1799 160.649 8.7791 158.632C8.05114 157.574 6.78272 157.111 5.74592 156.362C4.70913 155.635 3.82675 154.246 4.45544 153.133C4.97384 152.196 6.31947 151.998 6.99229 151.138C7.53274 150.444 7.51068 149.386 6.9592 148.736C4.76428 146.146 2.3267 151.425 1.11343 152.67C0.771507 153.034 0.440615 153.342 0.131782 153.596V153.618C0.109722 153.849 0.0876629 154.059 0.0876629 154.29C0.0545736 155.006 0.0656034 155.745 0.0545736 156.483C0.0435439 157.21 0.0214844 157.938 0.0214844 158.676C0.0214844 159.271 0.0435439 159.855 0.0545736 160.45C0.0545736 161.045 0.0545736 161.64 0.0876629 162.224C1.4002 162.665 2.6245 163.36 3.83778 164.065C6.19814 165.431 8.83425 167.239 8.98867 169.96C9.01073 170.401 8.96661 170.886 9.24235 171.25C9.49604 171.591 9.94826 171.735 10.3784 171.823C12.3969 172.308 14.4705 172.594 16.5551 172.682" fill="#33687E" fill-opacity="0.2"/>
<path d="M16.5106 172.694C16.5437 175.13 16.7202 177.686 16.6871 180.111C16.632 183.626 15.4738 187.108 15.8599 190.58C16.4224 195.495 19.8416 199.528 22.8196 203.484C34.1582 218.625 40.4121 236.775 47.041 254.562H47.063C48.2984 255.542 49.5447 256.468 50.8131 257.372C51.8169 258.088 52.8206 258.793 53.8463 259.487C54.8721 260.182 55.8979 260.854 56.9457 261.504C57.6736 261.967 58.4016 262.408 59.1516 262.849C59.0524 262.639 58.9641 262.441 58.8649 262.231C56.1957 256.369 56.0412 247.916 61.7877 245.018C62.8797 244.456 64.1371 244.159 65.0415 243.31C67.6004 240.886 65.5048 235.894 68.0637 233.469C69.5086 232.125 71.7586 232.224 73.5455 231.409C76.7551 229.932 77.7919 225.821 77.5493 222.284C77.2845 218.769 76.1264 215.275 76.5345 211.76C77.1742 206.437 81.3214 201.038 78.939 196.233C76.2698 190.877 68.4828 191.737 63.001 189.334C55.3464 185.973 52.986 176.485 47.9785 169.774C43.5004 163.779 33.0442 157.189 25.0807 158.996C19.3122 160.308 17.3268 163.746 16.7312 167.967" fill="#33687E" fill-opacity="0.2"/>
<path d="M7.63231 123.325C9.90444 121.385 13.82 121.154 15.5737 123.578C16.8201 125.308 16.5333 127.666 16.2135 129.782C15.7723 132.625 15.3311 135.469 14.8678 138.312C14.7355 139.16 14.6141 140.075 14.9781 140.868C15.8274 142.676 18.7834 142.323 19.9194 140.714C21.0776 139.083 20.9342 136.89 20.6364 134.929C20.3275 132.945 19.9194 130.873 20.6915 129.033C22.6107 124.46 29.4381 125.154 33.3978 122.178C35.8574 120.338 36.9604 117.242 38.4163 114.531C39.8723 111.82 42.3209 109.109 45.3982 109.252C46.435 109.285 47.4607 109.671 48.4975 109.638C51.5307 109.539 53.3065 105.109 51.1557 102.949C50.7145 102.486 50.1189 102.122 49.8101 101.56C49.2696 100.546 49.8432 99.2349 50.7697 98.5407C51.6962 97.8684 52.8653 97.6811 54.0014 97.5048C56.5934 97.086 59.1964 96.6783 61.7884 96.2706C64.6561 95.8298 68.329 94.3531 67.9209 91.4879C67.579 89.0084 64.2149 87.8954 63.7075 85.4379C63.5752 84.8429 63.6524 84.1927 63.3767 83.6307C62.5935 82.0548 60.2221 82.694 58.7 83.5315C58.0824 81.2503 54.8176 80.2034 52.9866 81.7022C51.4535 82.9695 51.255 85.1955 50.7145 87.1019C49.4461 91.7083 45.7732 95.2126 42.2767 98.4525C41.1076 99.5325 39.773 100.679 38.1847 100.756C36.5854 100.833 34.9199 99.1247 35.6479 97.7252C36.1442 96.7665 37.534 96.2044 37.4016 95.1355C37.2141 93.7911 34.8648 93.8902 34.4015 92.6009C35.328 88.799 39.6848 87.2232 43.0378 85.1845C47.0967 82.727 50.2843 78.848 51.8616 74.3519C52.1263 73.6356 52.3469 72.798 51.9719 72.1258C51.4756 71.1671 50.1851 71.0128 49.0931 71.0128C46.5122 70.9797 43.3025 71.3214 42.365 73.7237C41.8686 75.013 42.2326 76.4677 41.9238 77.8121C41.0194 81.8124 35.5376 82.2532 32.1956 84.6335C30.883 85.5592 29.8683 86.8375 28.4234 87.5538C26.8682 88.3031 25.0373 88.248 23.3056 88.3803C22.9967 88.4023 22.6879 88.4354 22.3791 88.4794C21.3202 89.9451 20.3055 91.4438 19.3238 92.9646C18.3422 94.4853 17.3936 96.0281 16.4782 97.604C12.1766 104.965 8.63601 112.823 5.94476 121.076C5.00723 123.953 4.16897 126.873 3.45203 129.826C2.7351 132.791 2.11743 135.799 1.62109 138.841C2.81231 136.383 3.35276 133.342 3.81601 131.193C4.45574 128.295 5.39327 125.253 7.64334 123.314L7.63231 123.325Z" fill="#33687E" fill-opacity="0.2"/>
<path d="M109.548 67.0122C110.695 65.5024 110.364 63.3425 111.103 61.6014C112.338 58.7142 116.188 57.6783 117.522 54.8241C118.041 53.7331 118.162 52.3887 119.055 51.5732C119.805 50.89 120.908 50.7577 121.714 50.1406C123.5 48.7741 122.761 45.6555 120.864 44.4433C116.099 41.4018 107.331 44.9172 103.206 47.8925C97.9114 51.7165 92.7274 56.3228 85.6905 55.882C83.7492 55.7608 81.7308 55.2208 79.9109 55.9151C78.091 56.5983 76.9659 59.3313 78.5322 60.4773C79.4035 61.1165 80.6388 60.9402 81.6205 61.392C83.4404 62.2295 83.6169 64.8523 82.7345 66.6485C81.8521 68.4448 80.2528 69.7782 79.205 71.4863C78.1902 73.1393 77.727 75.1229 77.8924 77.0514C78.0138 78.3958 78.488 79.7843 79.5359 80.6218C81.7308 82.374 85.0618 80.8753 86.9148 78.7705C88.7678 76.6657 90.0472 73.9548 92.4627 72.5222C93.665 71.8059 95.0547 71.4753 96.4114 71.1447C99.4777 70.4173 102.533 69.69 105.599 68.9627C107.055 68.6211 108.643 68.1913 109.548 67.0012V67.0122Z" fill="#33687E" fill-opacity="0.2"/>
<g opacity="0.6">
<path d="M242.92 157.001C242.92 155.249 242.854 153.519 242.765 151.8C242.854 153.519 242.909 155.26 242.92 157.001C242.953 157.563 242.953 158.114 242.953 158.676C242.953 161.365 242.854 164.021 242.699 166.666C242.854 164.01 242.953 161.365 242.953 158.676C242.953 158.114 242.953 157.563 242.92 157.001Z" fill="url(#paint8_linear_4008_17571)" fill-opacity="0.16"/>
</g>
<g opacity="0.6">
<path d="M235.33 116.272C235.33 116.272 235.352 116.25 235.33 116.25V116.272Z" fill="url(#paint9_linear_4008_17571)" fill-opacity="0.16"/>
</g>
<path d="M242.92 157.001C242.92 155.249 242.854 153.519 242.765 151.8C242.677 150.081 242.534 148.362 242.368 146.654C242.236 145.265 242.082 143.91 241.883 142.543C241.696 141.099 241.486 139.667 241.243 138.245C240.526 133.97 239.567 129.76 238.409 125.638C237.957 124.052 237.471 122.487 236.964 120.922C236.456 119.368 235.905 117.814 235.331 116.283V116.26C234.714 115.103 234.063 113.979 233.346 112.855C226.596 102.177 216.79 93.8018 209.367 83.5753C206.941 80.2472 205.055 77.5033 200.775 76.8531C194.433 75.8723 191.223 79.4869 186.723 73.47C185.51 71.8611 183.392 70.3623 181.606 71.3211C182.069 72.6104 182.543 73.8997 183.006 75.2001C183.106 75.4646 183.194 75.7621 183.161 76.0486C183.061 76.9523 181.716 77.2057 180.955 76.6988C180.183 76.1809 179.797 75.2772 179.267 74.5279C177.271 71.6627 172.572 71.299 170.135 73.7785C170.035 72.5663 169.23 71.4313 168.116 70.9354C167.862 73.2937 165.16 75.0458 162.888 74.2965C162.524 73.1283 164.62 72.908 165.348 71.9162C166.021 70.9795 165.215 69.6681 164.344 68.8857C162.061 66.891 159.039 65.7119 155.983 65.6348C154.042 65.6017 151.947 65.9654 150.248 64.9626C149.266 64.3895 148.571 63.4308 147.579 62.8688C145.439 61.6566 142.77 62.7696 140.619 63.9597C137.674 65.5907 134.641 67.6514 133.604 70.8582C132.545 74.043 134.872 78.3739 138.214 77.9661C139.064 77.8559 139.946 77.4482 140.773 77.6796C141.965 78.0102 142.505 79.3877 142.604 80.6219C142.704 81.8341 142.571 83.1345 143.167 84.2144C143.74 85.2944 145.494 85.8233 146.167 84.8095C147.744 83.3108 147.557 80.7982 147.149 78.6604C146.763 76.5335 146.321 74.1312 147.59 72.379C148.88 70.6268 152.531 71.1888 152.277 73.3377C152.123 74.605 150.678 75.5307 150.733 76.82C150.788 78.1314 152.388 78.8147 153.7 78.7596C155.013 78.7265 156.336 78.2416 157.605 78.5722C158.895 78.8808 159.91 80.5558 158.995 81.4925C157.395 83.2998 153.248 80.2032 152.421 82.4512C152.189 83.0243 152.421 83.6855 152.366 84.2916C152.211 86.176 149.851 86.8702 147.965 87.1017C146.079 87.311 144.082 87.5094 142.373 86.6939C140.663 85.8895 139.494 83.6414 140.465 82.0215C139.505 81.3272 138.038 82.0215 137.52 83.1014C137.001 84.1593 137.156 85.4266 137.31 86.5947C135.314 86.1539 133.527 87.84 132.391 89.515C131.233 91.2011 130.141 93.1626 128.199 93.7577C126.236 94.3528 123.545 93.5483 122.53 95.3115C121.207 97.6147 125.045 100.535 123.699 102.827C122.927 104.116 121.085 104.072 119.618 104.48C115.758 105.571 114.412 111.224 117.037 114.244C119.651 117.263 124.935 117.087 127.725 114.211C129.666 112.227 130.461 109.45 131.861 107.059C133.262 104.701 135.92 102.541 138.567 103.312C139.604 103.621 140.487 104.348 141.314 105.042C142.604 106.122 143.895 107.191 145.174 108.293C146.001 108.987 146.906 109.847 146.829 110.927C146.752 111.786 146.079 112.459 145.792 113.274C144.987 115.599 148.351 117.803 150.469 116.536C152.608 115.269 152.818 112.018 151.373 110.023C149.377 107.257 144.854 105.869 144.965 102.452C147.27 100.568 150.91 102.552 152.255 105.218C153.601 107.874 153.634 111.015 154.77 113.77C155.906 116.536 159.072 118.971 161.73 117.627C161.035 115.247 160.362 112.877 159.667 110.519C161.355 109.252 163.296 112.943 165.315 112.326C166.55 111.941 166.693 110.177 166.164 108.987C165.645 107.797 164.686 106.794 164.454 105.505C164.068 103.158 166.682 101.064 169.054 101.45C171.403 101.835 173.113 104.083 173.554 106.409C173.73 107.334 173.763 108.315 174.171 109.153C175.054 110.993 177.348 111.555 179.223 112.326C181.131 113.098 183.084 114.993 182.3 116.878C181.936 117.704 181.065 118.487 181.374 119.335C181.661 120.084 182.775 120.415 182.775 121.219C182.753 121.759 182.201 122.123 181.694 122.332C180.425 122.85 179.036 123.027 177.811 123.622C176.576 124.195 175.462 125.385 175.561 126.729C175.716 128.647 177.999 129.573 179.08 131.17C180.117 132.691 179.962 134.708 180.613 136.438C181.231 138.036 182.499 139.281 183.514 140.648C186.701 144.99 187.451 150.577 189.018 155.723C189.712 158.048 190.981 160.638 193.363 161.079C194.676 161.31 195.977 160.814 197.213 160.329C200.654 158.963 204.228 157.508 206.632 154.72C209.059 151.91 209.864 147.359 207.382 144.615C207.073 144.251 206.676 143.921 206.213 143.865C205.562 143.788 204.978 144.229 204.404 144.505C202.65 145.309 200.5 144.637 199.044 143.348C197.599 142.08 196.716 140.295 195.856 138.565C194.918 136.658 193.97 134.741 193.01 132.823C194.146 131.865 195.955 132.261 197.124 133.209C198.283 134.146 198.988 135.512 199.937 136.669C202.805 140.24 207.514 141.816 212.07 142.356C213.228 142.488 214.419 142.587 215.489 143.072C218.897 144.626 219.868 149.64 223.463 150.72C224.467 151.028 225.581 150.973 226.519 151.414C227.942 152.086 228.647 153.695 229.078 155.216C229.861 158.037 230.136 161.013 231.328 163.712C232.497 166.401 234.901 168.837 237.824 168.881C239.655 168.914 241.376 167.999 242.71 166.71V166.688C242.865 164.032 242.964 161.387 242.964 158.698C242.964 158.136 242.964 157.585 242.931 157.023L242.92 157.001Z" fill="#33687E" fill-opacity="0.2"/>
<path d="M193.748 207.384C191.94 207.737 191.576 208.806 190.594 210.139C189.315 211.88 187.484 213.633 186.314 215.352C184.34 218.272 186.116 222.823 183.513 225.27C182.983 225.766 182.3 226.096 181.825 226.647C180.777 227.859 181.175 229.92 182.443 230.89C183.722 231.86 185.597 231.782 186.976 230.967C188.355 230.151 189.27 228.708 189.756 227.176C190.098 226.074 190.296 224.829 191.156 224.068C192.645 222.768 194.951 223.738 196.914 223.462C205.241 222.294 201.668 205.808 193.748 207.373V207.384Z" fill="#33687E" fill-opacity="0.2"/>
<path d="M191.322 455.202L147.931 468.756C144.93 469.693 141.743 468.029 140.805 465.032L122.033 405.028C121.095 402.031 122.761 398.846 125.761 397.909L153.28 389.313L181.45 404.598L195.061 448.094C195.998 451.091 194.333 454.276 191.333 455.213L191.322 455.202Z" fill="#EBEBEB"/>
<path d="M135.768 448.968L190.015 432.024L194.945 447.78C195.935 450.946 194.163 454.329 190.994 455.318L148.105 468.714C145.01 469.681 141.708 467.953 140.74 464.86L135.768 448.968Z" fill="#EBEBEB"/>
<path d="M158.972 448.424L161.719 457.185L159.777 457.791L158.652 454.198L154.836 455.388L155.961 458.981L154.02 459.587L151.273 450.826L153.215 450.22L154.296 453.669L158.112 452.479L157.031 449.03L158.972 448.424Z" fill="white"/>
<path d="M167.642 454.982C167.345 455.389 166.826 455.709 166.253 455.885C164.73 456.359 163.583 455.83 163.087 454.221L162.227 451.455L161.234 451.764L160.76 450.265L161.752 449.956L161.245 448.315L163.12 447.73L163.628 449.372L165.238 448.866L165.712 450.364L164.102 450.871L164.962 453.615C165.139 454.188 165.536 454.409 166.043 454.254C166.319 454.166 166.572 453.99 166.716 453.769L167.653 454.993L167.642 454.982Z" fill="white"/>
<path d="M178.506 447.708L179.708 451.564L177.833 452.149L176.719 448.589C176.377 447.498 175.749 447.146 174.999 447.377C174.16 447.641 173.741 448.391 174.127 449.592L175.186 452.975L173.311 453.559L172.197 450C171.855 448.909 171.26 448.545 170.477 448.787C169.649 449.041 169.241 449.79 169.616 450.991L170.675 454.375L168.8 454.959L166.693 448.225L168.48 447.663L168.723 448.435C169.021 447.708 169.649 447.19 170.477 446.925C171.381 446.65 172.252 446.771 172.947 447.366C173.245 446.517 173.962 445.845 174.933 445.537C176.466 445.052 177.866 445.636 178.506 447.685V447.708Z" fill="white"/>
<path d="M178.495 441.746L180.37 441.162L183.271 450.452L181.396 451.036L178.484 441.746H178.495Z" fill="white"/>
<path d="M150.225 418.681L143.971 423.981L152.133 424.753L153.114 427.883L141.39 426.571L140.375 423.32L149.265 415.573L150.236 418.681H150.225Z" fill="white"/>
<path d="M155.078 407L158.089 406.063L158.321 431.861L155.31 432.798L155.078 407Z" fill="white"/>
<path d="M172.129 413.402L173.144 416.653L164.254 424.4L163.272 421.271L169.537 415.992L161.375 415.188L160.404 412.08L172.129 413.391V413.402Z" fill="white"/>
<g opacity="0.3">
<path d="M153.279 389.313L158.563 406.196C159.434 408.984 162.401 410.538 165.191 409.667L181.449 404.598L153.279 389.313Z" fill="white"/>
</g>
<path d="M159.246 407.606C159.246 407.606 160.316 411.772 165.401 411.662C165.588 411.662 165.787 411.64 165.974 411.618C168.213 411.331 182.96 409.458 182.861 409.127C182.75 408.786 181.438 404.587 181.438 404.587L165.191 409.667C165.191 409.667 161.088 410.791 159.246 407.606Z" fill="#EBEBEB"/>
<path d="M460.746 492.713C460.746 492.868 359.041 493 233.611 493C108.18 493 6.45312 492.868 6.45312 492.713C6.45312 492.559 108.136 492.427 233.611 492.427C359.085 492.427 460.746 492.559 460.746 492.713Z" fill="#33687E"/>
<path d="M393.045 110.001H63.5977V357.333H393.045V110.001Z" fill="white"/>
<path d="M393.034 357.333C393.034 357.333 393.012 356.936 393.012 356.176C393.012 355.415 393.001 354.28 392.99 352.793C392.979 349.817 392.957 345.409 392.935 339.646C392.902 328.141 392.869 311.236 392.814 289.659C392.758 246.571 392.67 184.793 392.571 110.001L393.045 110.475C300.042 110.508 186.304 110.541 63.6308 110.574H63.6087L64.1822 110.001C64.1602 198.921 64.1381 283.135 64.1271 357.333L63.6087 356.815C161.178 356.925 243.471 357.013 301.388 357.068C330.385 357.123 353.283 357.178 368.923 357.212C376.754 357.234 382.777 357.256 386.846 357.278C388.876 357.289 390.42 357.3 391.468 357.311C391.986 357.311 392.383 357.322 392.648 357.322C392.913 357.322 393.056 357.333 393.056 357.333C393.056 357.333 392.935 357.333 392.681 357.344C392.417 357.344 392.042 357.344 391.534 357.355C390.508 357.355 388.975 357.377 386.968 357.388C382.92 357.399 376.942 357.421 369.155 357.454C353.537 357.487 330.683 357.531 301.73 357.597C243.736 357.663 161.31 357.752 63.6087 357.851H63.0903V357.333C63.0682 283.135 63.0572 198.932 63.0352 110.001V109.428H63.6087H63.6308C186.304 109.461 300.042 109.505 393.045 109.527H393.52V110.001C393.42 184.914 393.332 246.792 393.277 289.957C393.222 311.49 393.189 328.35 393.156 339.833C393.133 345.552 393.111 349.938 393.1 352.892C393.089 354.357 393.078 355.47 393.078 356.22C393.078 356.958 393.056 357.322 393.056 357.322L393.034 357.333Z" fill="#33687E"/>
<path d="M391.391 140.284C391.391 140.284 391.104 140.328 390.564 140.339C389.99 140.35 389.185 140.372 388.115 140.394C385.953 140.416 382.788 140.449 378.718 140.493C370.556 140.559 358.754 140.592 344.162 140.592C314.988 140.592 274.674 140.372 230.169 140.019C185.653 139.667 145.35 139.336 116.155 139.105C101.573 138.994 89.7825 138.895 81.6094 138.829C77.5394 138.774 74.3849 138.741 72.2121 138.708C71.1532 138.686 70.337 138.664 69.7745 138.653C69.223 138.631 68.9473 138.609 68.9473 138.598C68.9473 138.587 69.234 138.554 69.7745 138.543C70.337 138.532 71.1532 138.509 72.2121 138.487C74.3739 138.465 77.5394 138.432 81.6094 138.388C89.7714 138.322 101.573 138.289 116.166 138.289C145.339 138.289 185.653 138.509 230.18 138.873C274.685 139.226 314.988 139.556 344.173 139.788C358.754 139.898 370.545 139.997 378.729 140.063C382.799 140.118 385.953 140.151 388.126 140.184C389.185 140.207 390.001 140.229 390.575 140.24C391.126 140.262 391.402 140.284 391.402 140.295L391.391 140.284Z" fill="#33687E"/>
<path d="M85.1165 122.564C85.1165 124.701 83.3848 126.443 81.234 126.443C79.0832 126.443 77.3516 124.712 77.3516 122.564C77.3516 120.415 79.0832 118.685 81.234 118.685C83.3848 118.685 85.1165 120.415 85.1165 122.564Z" fill="#33687E"/>
<path d="M100.636 122.564C100.636 124.701 98.9044 126.443 96.7536 126.443C94.6028 126.443 92.8711 124.712 92.8711 122.564C92.8711 120.415 94.6028 118.685 96.7536 118.685C98.9044 118.685 100.636 120.415 100.636 122.564Z" fill="#33687E"/>
<path d="M112.271 126.443C114.415 126.443 116.154 124.706 116.154 122.564C116.154 120.421 114.415 118.685 112.271 118.685C110.127 118.685 108.389 120.421 108.389 122.564C108.389 124.706 110.127 126.443 112.271 126.443Z" fill="#33687E"/>
<path d="M188.718 283.862H121.018V334.499H188.718V283.862Z" fill="#EBEBEB"/>
<path d="M263.07 283.862H195.369V334.499H263.07V283.862Z" fill="#EBEBEB"/>
<path d="M349.72 283.862H282.02V334.499H349.72V283.862Z" fill="#EBEBEB"/>
<path d="M324.087 256.049H132.544C120.037 256.049 109.9 245.921 109.9 233.425C109.9 220.928 120.037 210.801 132.544 210.801H324.087C336.595 210.801 346.731 220.928 346.731 233.425C346.731 245.921 336.595 256.049 324.087 256.049Z" fill="white"/>
<path d="M324.087 256.049C324.087 256.049 324.551 256.005 325.444 255.95C325.896 255.917 326.448 255.906 327.099 255.785C327.749 255.663 328.521 255.608 329.36 255.355C329.779 255.245 330.231 255.123 330.705 255.002C331.169 254.848 331.643 254.66 332.15 254.473C332.404 254.374 332.658 254.286 332.922 254.187C333.176 254.065 333.43 253.933 333.694 253.812C334.213 253.547 334.786 253.316 335.316 252.963C337.522 251.696 339.871 249.834 341.878 247.211C342.375 246.55 342.893 245.878 343.312 245.106C343.798 244.379 344.184 243.574 344.57 242.737C344.989 241.921 345.232 241.007 345.584 240.114C345.706 239.651 345.827 239.177 345.948 238.704L346.136 237.987L346.246 237.249C346.323 236.753 346.401 236.246 346.478 235.739C346.5 235.232 346.533 234.714 346.555 234.185L346.588 233.392L346.544 232.599C346.511 232.07 346.5 231.53 346.445 230.99C346.191 228.83 345.618 226.626 344.702 224.466C342.827 220.19 339.397 216.19 334.709 213.655C332.371 212.399 329.724 211.55 326.944 211.198C324.165 210.878 321.242 211.043 318.286 211.01C270.737 211.032 205.076 211.066 132.556 211.099C130.317 211.143 128.089 211.451 125.96 212.09C123.842 212.774 121.835 213.743 119.982 214.967C118.162 216.223 116.541 217.744 115.14 219.43C113.75 221.138 112.669 223.055 111.82 225.061C110.982 227.078 110.529 229.215 110.276 231.364C110.099 233.524 110.21 235.684 110.596 237.8C111.059 239.894 111.721 241.943 112.724 243.817C113.75 245.679 114.952 247.442 116.441 248.952C119.375 251.983 123.136 254.165 127.173 255.134C128.166 255.443 129.203 255.509 130.218 255.685C131.254 255.729 132.269 255.829 133.306 255.807C135.38 255.807 137.453 255.807 139.505 255.807C147.733 255.807 155.785 255.807 163.638 255.807C195.061 255.829 223.364 255.851 247.133 255.873C270.891 255.906 290.127 255.939 303.429 255.961C310.069 255.983 315.22 256.005 318.738 256.016C320.481 256.027 321.815 256.038 322.72 256.049C323.613 256.049 324.076 256.082 324.076 256.082C324.076 256.082 323.613 256.104 322.72 256.115C321.815 256.115 320.481 256.126 318.738 256.148C315.231 256.159 310.069 256.181 303.429 256.203C290.127 256.225 270.902 256.258 247.133 256.291C223.364 256.313 195.061 256.324 163.638 256.358C155.785 256.358 147.733 256.358 139.505 256.358C137.453 256.358 135.38 256.358 133.306 256.358C132.269 256.38 131.21 256.28 130.151 256.236C129.115 256.049 128.045 255.983 127.03 255.674C122.894 254.694 119.044 252.445 116.033 249.349C114.511 247.806 113.276 245.999 112.228 244.092C111.202 242.164 110.518 240.059 110.044 237.921C109.647 235.761 109.526 233.535 109.713 231.331C109.967 229.127 110.43 226.934 111.291 224.874C112.162 222.824 113.265 220.851 114.688 219.099C116.122 217.369 117.787 215.815 119.651 214.515C121.548 213.258 123.611 212.267 125.784 211.572C127.979 210.922 130.251 210.603 132.556 210.559C205.076 210.592 270.737 210.625 318.286 210.647C321.253 210.691 324.154 210.537 326.999 210.856C329.823 211.22 332.514 212.079 334.886 213.369C339.639 215.958 343.114 220.025 345 224.378C345.926 226.571 346.5 228.808 346.754 231.001C346.809 231.552 346.82 232.092 346.853 232.632L346.897 233.436L346.864 234.229C346.831 234.758 346.809 235.287 346.776 235.805C346.698 236.323 346.621 236.83 346.544 237.326L346.423 238.075L346.235 238.803C346.114 239.288 345.982 239.761 345.86 240.235C345.496 241.139 345.254 242.065 344.823 242.88C344.426 243.718 344.029 244.533 343.544 245.271C343.114 246.043 342.595 246.726 342.088 247.387C340.036 250.032 337.665 251.894 335.426 253.151C334.886 253.503 334.312 253.735 333.783 253.999C333.518 254.132 333.253 254.253 333 254.374C332.735 254.473 332.47 254.572 332.216 254.66C331.709 254.837 331.224 255.024 330.76 255.178C330.286 255.3 329.834 255.41 329.404 255.52C328.566 255.773 327.782 255.818 327.132 255.928C326.481 256.049 325.918 256.049 325.466 256.071C324.573 256.104 324.11 256.115 324.11 256.115L324.087 256.049Z" fill="#33687E"/>
<path d="M322.522 239.305C326.459 235.371 326.459 228.994 322.522 225.06C318.585 221.127 312.202 221.127 308.265 225.06C304.328 228.994 304.328 235.371 308.265 239.305C312.202 243.238 318.585 243.238 322.522 239.305Z" fill="white"/>
<path d="M315.396 242.802C309.54 242.802 304.764 238.042 304.764 232.179C304.764 226.316 309.529 221.556 315.396 221.556C321.264 221.556 326.029 226.316 326.029 232.179C326.029 238.042 321.264 242.802 315.396 242.802ZM315.396 222.658C310.146 222.658 305.867 226.922 305.867 232.179C305.867 237.435 310.135 241.7 315.396 241.7C320.658 241.7 324.926 237.435 324.926 232.179C324.926 226.922 320.658 222.658 315.396 222.658Z" fill="#33687E"/>
<path d="M323.819 237.683L323.23 238.615L331.764 243.999L332.353 243.067L323.819 237.683Z" fill="#33687E"/>
<path d="M69.1677 77.4151L33.6078 58.6481C31.1482 57.3477 30.2106 54.3062 31.5121 51.8598L57.4982 2.67769C58.7997 0.220234 61.844 -0.716463 64.2926 0.583892L86.8484 12.4855L94.8008 39.6717L75.962 75.3213C74.6605 77.7787 71.6163 78.7154 69.1677 77.4151Z" fill="#FF725E"/>
<g opacity="0.3">
<path d="M86.849 12.4854L79.5362 26.3264C78.334 28.6076 79.2053 31.4397 81.4885 32.6409L94.8124 39.6716L86.86 12.4854H86.849Z" fill="white"/>
</g>
<g opacity="0.2">
<path d="M79.0729 27.638C79.0729 27.638 77.1206 30.8999 80.3633 34.0296C80.4847 34.1508 80.617 34.25 80.7494 34.3602C82.3266 35.5834 92.6946 43.661 92.838 43.3965C92.9924 43.11 94.8013 39.6718 94.8013 39.6718L81.4774 32.641C81.4774 32.641 78.2125 30.7676 79.0618 27.627L79.0729 27.638Z" fill="#154A60"/>
</g>
<path d="M76.8556 24.1888C76.7563 24.3652 73.0062 22.5689 68.4619 20.1666C63.9177 17.7642 60.3109 15.6814 60.4102 15.5051C60.5095 15.3288 64.2596 17.125 68.8038 19.5274C73.3481 21.9187 76.9548 24.0125 76.8556 24.1888Z" fill="#F5F5F5"/>
<path d="M83.341 37.6221C83.2417 37.7985 77.1092 34.7459 69.631 30.8008C62.1528 26.8556 56.1637 23.5166 56.2629 23.3403C56.3622 23.164 62.4947 26.2165 69.9729 30.1616C77.4511 34.1068 83.4402 37.4458 83.341 37.6221Z" fill="#F5F5F5"/>
<path d="M82.327 45.4353C82.2278 45.6116 75.5437 42.2726 67.4038 37.9748C59.2528 33.677 52.7232 30.0404 52.8114 29.8641C52.9107 29.6878 59.5837 33.0268 67.7457 37.3246C75.8967 41.6224 82.4263 45.259 82.3381 45.4353H82.327Z" fill="#F5F5F5"/>
<path d="M79.0731 51.6062C78.9739 51.7825 72.2898 48.4435 64.1499 44.1457C55.9989 39.8479 49.4693 36.2113 49.5575 36.035C49.6568 35.8587 56.3298 39.1977 64.4918 43.4955C72.6428 47.7933 79.1724 51.4299 79.0842 51.6062H79.0731Z" fill="#F5F5F5"/>
<path d="M75.8075 57.7664C75.7082 57.9427 69.0242 54.6036 60.8843 50.3058C52.7333 46.0081 46.2037 42.3715 46.2919 42.1952C46.3912 42.0188 53.0642 45.3579 61.2262 49.6557C69.3772 53.9534 75.9068 57.59 75.8185 57.7664H75.8075Z" fill="#F5F5F5"/>
<path d="M72.5536 63.9377C72.4543 64.1141 65.7703 60.775 57.6304 56.4772C49.4794 52.1794 42.9498 48.5429 43.038 48.3665C43.1373 48.1902 49.8103 51.5293 57.9723 55.8271C66.1233 60.1248 72.6529 63.7614 72.5646 63.9377H72.5536Z" fill="#F5F5F5"/>
<path d="M244.441 447.191C241.308 446.739 239.135 443.841 239.576 440.7L246.669 391.408C247.033 388.896 249.492 387.177 252.172 387.562L256.816 388.223C258.713 388.499 260.577 387.716 261.603 386.218L262.893 384.344C263.919 382.846 265.783 382.063 267.68 382.339L289.696 385.501C291.416 385.744 292.883 386.824 293.556 388.334L294.394 390.207C295.067 391.717 296.534 392.797 298.255 393.039L326.325 397.072C329.006 397.458 330.881 399.805 330.528 402.307L323.27 452.723C322.818 455.853 319.917 458.024 316.774 457.583L244.441 447.191Z" fill="#455A64"/>
<g opacity="0.3">
<path d="M244.441 447.191C241.308 446.739 239.135 443.841 239.576 440.7L246.669 391.408C247.033 388.896 249.492 387.177 252.172 387.562L256.816 388.223C258.713 388.499 260.577 387.716 261.603 386.218L262.893 384.344C263.919 382.846 265.783 382.063 267.68 382.339L289.696 385.501C291.416 385.744 292.883 386.824 293.556 388.334L294.394 390.207C295.067 391.717 296.534 392.797 298.255 393.039L326.325 397.072C329.006 397.458 330.881 399.805 330.528 402.307L323.27 452.723C322.818 455.853 319.917 458.024 316.774 457.583L244.441 447.191Z" fill="#154A60"/>
</g>
<path d="M295.486 392.642L277.629 390.041L276.459 386.834C275.698 384.752 273.768 383.231 271.452 382.9L253.992 380.388C250.881 379.936 248.025 381.942 247.606 384.84L247.308 386.879L239.609 440.403C239.135 443.709 241.605 446.794 245.135 447.301L316.034 457.483C319.564 457.99 322.806 455.72 323.281 452.425L330.56 401.866C330.88 399.607 329.314 397.524 327.064 397.193L295.453 392.653L295.486 392.642Z" fill="#455A64"/>
<path d="M309.812 414.646L267.615 408.586L265.063 426.322L307.26 432.382L309.812 414.646Z" fill="white"/>
<path d="M302.171 421.536C302.149 421.69 295.641 420.886 287.634 419.74C279.626 418.594 273.152 417.525 273.174 417.371C273.196 417.216 279.704 418.021 287.711 419.167C295.719 420.313 302.193 421.382 302.171 421.536Z" fill="#33687E"/>
<path d="M301.63 425.316C301.608 425.471 295.1 424.666 287.093 423.52C279.085 422.374 272.611 421.305 272.633 421.151C272.655 420.997 279.162 421.801 287.17 422.947C295.178 424.093 301.652 425.162 301.63 425.316Z" fill="#33687E"/>
<path d="M372.485 425.282C370.543 426.021 368.37 425.051 367.62 423.111L355.929 392.586C355.333 391.032 356.194 389.258 357.859 388.619L360.727 387.517C361.896 387.065 362.723 386.018 362.834 384.839L362.966 383.351C363.076 382.172 363.892 381.125 365.073 380.673L378.716 375.461C379.775 375.053 380.966 375.208 381.838 375.858L382.919 376.662C383.79 377.312 384.97 377.456 386.04 377.059L403.423 370.414C405.089 369.775 406.908 370.524 407.504 372.078L419.471 403.297C420.21 405.237 419.24 407.408 417.298 408.157L372.496 425.293L372.485 425.282Z" fill="#FF725E"/>
<g opacity="0.3">
<path d="M372.485 425.282C370.543 426.021 368.37 425.051 367.62 423.111L355.929 392.586C355.333 391.032 356.194 389.258 357.859 388.619L360.727 387.517C361.896 387.065 362.723 386.018 362.834 384.839L362.966 383.351C363.076 382.172 363.892 381.125 365.073 380.673L378.716 375.461C379.775 375.053 380.966 375.208 381.838 375.858L382.919 376.662C383.79 377.312 384.97 377.456 386.04 377.059L403.423 370.414C405.089 369.775 406.908 370.524 407.504 372.078L419.471 403.297C420.21 405.237 419.24 407.408 417.298 408.157L372.496 425.293L372.485 425.282Z" fill="#154A60"/>
</g>
<path d="M384.309 377.71L373.235 381.919L371.537 380.454C370.434 379.506 368.834 379.241 367.411 379.792L356.602 383.925C354.683 384.663 353.679 386.713 354.363 388.52L354.848 389.776L367.544 422.924C368.327 424.974 370.731 425.955 372.926 425.117L416.836 408.323C419.02 407.485 420.156 405.149 419.373 403.111L407.372 371.792C406.832 370.392 405.265 369.698 403.876 370.227L384.298 377.71H384.309Z" fill="#FF725E"/>
<path d="M399.574 385.727L373.441 395.724L377.649 406.705L403.782 396.708L399.574 385.727Z" fill="white"/>
<path d="M397.391 392.145C397.446 392.289 393.475 393.953 388.512 395.848C383.548 397.743 379.489 399.165 379.434 399.011C379.379 398.867 383.35 397.203 388.313 395.308C393.276 393.413 397.335 391.991 397.391 392.145Z" fill="#33687E"/>
<path d="M398.283 394.482C398.338 394.625 394.368 396.289 389.404 398.185C384.441 400.08 380.382 401.502 380.327 401.348C380.272 401.204 384.242 399.54 389.206 397.645C394.169 395.749 398.228 394.328 398.283 394.482Z" fill="#33687E"/>
<path d="M416.504 444.314C418.721 445.273 420.364 447.333 421.181 449.603C421.997 451.874 422.074 454.364 421.798 456.777C421.269 461.428 418.622 466.133 415.776 469.847C411.849 466.431 410.956 460.458 410.68 457.406C410.261 452.579 412.423 443.598 416.493 444.314" fill="#FF725E"/>
<path d="M420.343 477.528C419.715 474.894 420.807 472.018 422.836 470.21C424.855 468.414 427.678 467.654 430.38 467.852C431.627 467.951 432.972 468.315 433.689 469.34C434.362 470.298 434.285 471.643 433.745 472.679C433.204 473.715 432.267 474.486 431.274 475.114C427.877 477.241 424.193 478.685 420.354 477.528" fill="#FF725E"/>
<path d="M415.312 491.788C415.312 491.788 415.346 491.446 415.456 490.829C415.577 490.157 415.743 489.287 415.93 488.251C416.36 486.091 416.923 482.994 418.599 479.997C420.254 476.999 422.581 474.795 424.533 473.704C425.504 473.142 426.353 472.812 426.949 472.635C427.247 472.536 427.489 472.503 427.644 472.459C427.809 472.426 427.886 472.415 427.897 472.426C427.931 472.503 426.541 472.757 424.655 473.914C422.769 475.038 420.53 477.22 418.897 480.173C417.254 483.115 416.658 486.168 416.162 488.317C415.919 489.397 415.732 490.278 415.577 490.884C415.423 491.491 415.335 491.821 415.312 491.81V491.788Z" fill="#33687E"/>
<path d="M415.457 451.301C415.457 451.301 415.49 451.444 415.501 451.72C415.523 452.028 415.545 452.425 415.567 452.921C415.622 453.968 415.689 455.466 415.744 457.34C415.865 461.064 415.964 466.222 415.931 471.919C415.909 477.616 415.766 482.763 415.611 486.499C415.534 488.361 415.457 489.871 415.391 490.907C415.358 491.402 415.336 491.799 415.314 492.108C415.291 492.383 415.269 492.526 415.258 492.526C415.247 492.526 415.236 492.383 415.236 492.108C415.236 491.799 415.236 491.402 415.258 490.907C415.28 489.827 415.325 488.328 415.369 486.488C415.457 482.763 415.567 477.605 415.589 471.919C415.611 466.233 415.556 461.075 415.501 457.351C415.468 455.521 415.446 454.023 415.435 452.932C415.435 452.436 415.435 452.039 415.435 451.731C415.435 451.455 415.435 451.312 415.457 451.312V451.301Z" fill="#33687E"/>
<path d="M413.56 480.36C412.666 474.729 408.872 469.638 403.721 467.18C402.408 466.552 400.699 466.144 399.618 467.114C398.537 468.095 398.78 469.836 399.309 471.191C401.504 476.834 407.405 480.812 413.46 480.735" fill="#FF725E"/>
<path d="M404.361 471.588C404.361 471.588 404.669 471.698 405.188 471.952C405.453 472.073 405.772 472.227 406.125 472.447C406.478 472.668 406.908 472.877 407.328 473.197C407.758 473.494 408.232 473.825 408.695 474.222C409.181 474.596 409.655 475.059 410.151 475.544C411.122 476.536 412.092 477.726 412.92 479.104C413.736 480.481 414.332 481.903 414.74 483.225C414.927 483.897 415.104 484.525 415.203 485.142C415.335 485.749 415.379 486.322 415.434 486.84C415.512 487.357 415.479 487.831 415.501 488.25C415.523 488.669 415.501 489.021 415.468 489.319C415.423 489.903 415.39 490.223 415.368 490.223C415.291 490.223 415.423 488.933 415.192 486.873C415.126 486.355 415.059 485.793 414.916 485.209C414.806 484.613 414.629 483.985 414.431 483.335C414.012 482.035 413.416 480.646 412.611 479.291C411.795 477.946 410.846 476.767 409.909 475.775C409.423 475.291 408.971 474.828 408.497 474.453C408.045 474.045 407.581 473.715 407.173 473.406C405.486 472.205 404.305 471.665 404.339 471.599L404.361 471.588Z" fill="#33687E"/>
</g>
<defs>
<linearGradient id="paint0_linear_4008_17571" x1="482.012" y1="256.047" x2="388.057" y2="318.609" gradientUnits="userSpaceOnUse">
<stop stop-color="#33687E" stop-opacity="0.1"/>
<stop offset="1" stop-color="#33687E" stop-opacity="0.8"/>
</linearGradient>
<linearGradient id="paint1_linear_4008_17571" x1="242.367" y1="138.234" x2="240.34" y2="138.458" gradientUnits="userSpaceOnUse">
<stop stop-color="#33687E" stop-opacity="0.1"/>
<stop offset="1" stop-color="#33687E" stop-opacity="0.8"/>
</linearGradient>
<linearGradient id="paint2_linear_4008_17571" x1="201.649" y1="78.5" x2="-127.724" y2="349.438" gradientUnits="userSpaceOnUse">
<stop stop-color="#33687E" stop-opacity="0.1"/>
<stop offset="1" stop-color="#33687E" stop-opacity="0.8"/>
</linearGradient>
<linearGradient id="paint3_linear_4008_17571" x1="47.0316" y1="162.235" x2="-25.8558" y2="192.794" gradientUnits="userSpaceOnUse">
<stop stop-color="#33687E" stop-opacity="0.1"/>
<stop offset="1" stop-color="#33687E" stop-opacity="0.8"/>
</linearGradient>
<linearGradient id="paint4_linear_4008_17571" x1="0.0330892" y1="156.483" x2="-0.0272596" y2="156.484" gradientUnits="userSpaceOnUse">
<stop stop-color="#33687E" stop-opacity="0.1"/>
<stop offset="1" stop-color="#33687E" stop-opacity="0.8"/>
</linearGradient>
<linearGradient id="paint5_linear_4008_17571" x1="59.153" y1="259.487" x2="55.5575" y2="264.163" gradientUnits="userSpaceOnUse">
<stop stop-color="#33687E" stop-opacity="0.1"/>
<stop offset="1" stop-color="#33687E" stop-opacity="0.8"/>
</linearGradient>
<linearGradient id="paint6_linear_4008_17571" x1="0.110411" y1="153.596" x2="-0.0303408" y2="153.599" gradientUnits="userSpaceOnUse">
<stop stop-color="#33687E" stop-opacity="0.1"/>
<stop offset="1" stop-color="#33687E" stop-opacity="0.8"/>
</linearGradient>
<linearGradient id="paint7_linear_4008_17571" x1="0.0656034" y1="160.45" x2="-0.0148317" y2="160.452" gradientUnits="userSpaceOnUse">
<stop stop-color="#33687E" stop-opacity="0.1"/>
<stop offset="1" stop-color="#33687E" stop-opacity="0.8"/>
</linearGradient>
<linearGradient id="paint8_linear_4008_17571" x1="242.953" y1="151.8" x2="242.49" y2="151.806" gradientUnits="userSpaceOnUse">
<stop stop-color="#33687E" stop-opacity="0.1"/>
<stop offset="1" stop-color="#33687E" stop-opacity="0.8"/>
</linearGradient>
<linearGradient id="paint9_linear_4008_17571" x1="236.962" y1="116.25" x2="234.214" y2="117.043" gradientUnits="userSpaceOnUse">
<stop stop-color="#33687E" stop-opacity="0.1"/>
<stop offset="1" stop-color="#33687E" stop-opacity="0.8"/>
</linearGradient>
<clipPath id="clip0_4008_17571">
<rect width="482" height="493" fill="white"/>
</clipPath>
</defs>
</svg>
